<?xml version="1.0" encoding="utf-8"?>
<!-- Generator: Adobe Illustrator 16.0.0, SVG Export Plug-In . SVG Version: 6.00 Build 0)  -->
<!DOCTYPE svg PUBLIC "-//W3C//DTD SVG 1.1//EN" "http://www.w3.org/Graphics/SVG/1.1/DTD/svg11.dtd">
<svg version="1.1" xmlns="http://www.w3.org/2000/svg" xmlns:xlink="http://www.w3.org/1999/xlink" x="0px" y="0px" width="120px"
	 height="80px" viewBox="0 0 120 80" enable-background="new 0 0 120 80" xml:space="preserve">
<g id="fond">
	<rect fill="#5E4F39" width="120" height="80"/>
</g>
<g id="bassin">
	<g>
		<polygon opacity="0.5" fill="#2B2B2B" enable-background="new    " points="73.58,31.406 66.811,31.406 66.811,31.251
			65.514,31.251 65.514,31.406 58.744,31.406 58.744,31.303 57.447,31.303 57.447,31.406 55.644,31.406 55.644,33.739
			57.447,33.739 57.447,34.357 58.744,34.357 58.744,33.739 65.514,33.739 65.514,34.304 66.811,34.304 66.811,33.739 73.58,33.739
					"/>
		<polygon opacity="0.5" fill="#2B2B2B" enable-background="new    " points="73.58,19.389 66.811,19.389 66.811,19.23
			65.514,19.23 65.514,19.389 58.744,19.389 58.744,19.283 57.447,19.283 57.447,19.389 55.644,19.389 55.644,21.722 57.447,21.722
			57.447,22.337 58.744,22.337 58.744,21.722 65.514,21.722 65.514,22.284 66.811,22.284 66.811,21.722 73.58,21.722 		"/>
		<g>
			<g>

					<rect x="92.314" y="42.535" fill="#6C6C6C" stroke="#000000" stroke-width="0.5" stroke-miterlimit="10" width="1.5" height="14.5"/>
				<g>

						<rect x="91.771" y="43.619" fill="#6C6C6C" stroke="#000000" stroke-width="0.5" stroke-miterlimit="10" width="2.5" height="0.918"/>

						<rect x="91.771" y="55.035" fill="#6C6C6C" stroke="#000000" stroke-width="0.5" stroke-miterlimit="10" width="2.5" height="0.918"/>

						<rect x="91.814" y="49.328" fill="#6C6C6C" stroke="#000000" stroke-width="0.5" stroke-miterlimit="10" width="2.5" height="0.916"/>
				</g>
			</g>
			<g>
				<path opacity="0.5" fill="#2B2B2B" enable-background="new    " d="M99.254,68.895c-5.334,7.35-12.398,11.318-15.781,8.863
					s-1.797-10.401,3.537-17.752L99.254,68.895z"/>

					<ellipse fill="#754C27" stroke="#000000" stroke-width="0.5" stroke-miterlimit="10" cx="93.043" cy="64.328" rx="7.334" ry="7.295"/>
				<path fill="#AF712E" d="M91.904,62.01c-0.543,0.438-0.953,0.842-1.092,1.096c-0.141,0.255-0.008,0.357,0.537,0.283
					c-0.938,0.063-1.52,0.063-1.68-0.004c-0.227-0.125-0.031-0.316,0.602-0.619c-0.871,0.045-1.305-0.02-1.127-0.088
					c-0.27-0.43,0.07-0.857,0.912-1.151c-0.842-0.054-1.182,0.047-0.824,0.237c-0.383-0.443-0.07-0.795,0.686-0.682
					c-0.928,0.019-0.529-0.191,0.727-0.104c-0.186-0.392-0.145-0.03,0.094,0.589C90.951,61.53,91.361,61.754,91.904,62.01z"/>
				<path fill="#AF712E" d="M97.32,60.07c-0.508,1.741-0.688,2.139-0.676,1.059c-0.586,1.654-0.982,1.832-2,0.696
					c0.141,1.136-0.256,0.958-1.605-0.358c0.773,0.742,0.598,0.346-0.34-0.733c0.938,0.202,1.113-0.194,0.836-0.759
					c0.758,0.6,0.904,0.25,0.791-0.92c0.553,1.023,0.846,1.226,1.09,0.346c0.246,0.387,0.643,0.564,1.479,0.047
					C96.635,60.539,96.813,60.935,97.32,60.07z"/>
				<path fill="#AF712E" d="M89.25,66.303c-0.27,0.604-0.346,0.803-0.26,0.637s0.334-0.697,0.787-1.297
					c-0.102,0.246,0.004,0.425,0.248,0.439c0.219-0.07,0.578-0.305,1.088-0.596c0.094,0.65,0.58,0.868,1.383,0.756
					c-0.096,0.818,0.121,1.305,0.848,1.395c-0.727,0.988-0.943,1.477,0.012,1.336c-1.66,0.846-2.148,1.064-0.881,0.418
					c-2.346,0.646-2.832,0.428-1.879-1.375c-1.244,0.822-1.678,0.754-1.596-0.327C89.025,67.328,89.109,66.854,89.25,66.303z"/>
				<path fill="#AF712E" d="M96.326,65.467c0.236,0.018,0.412-0.16,0.998-0.971c-0.148,0.811,0.029,0.987,0.977,0.98
					c-0.947,0.443-1.125,0.621-0.965,1.001C96.738,66.1,96.563,65.922,96.326,65.467z"/>

					<ellipse opacity="0.7" fill="#C4E6F5" stroke="#000000" stroke-width="0.5" stroke-miterlimit="10" enable-background="new    " cx="93.043" cy="64.328" rx="7.334" ry="7.295"/>
				<path opacity="0.6" fill="#647175" enable-background="new    " d="M87.623,59.871c0,0,11.84-4.322,12.039,7.756
					c0,0,2.697-4.438-0.986-8.582C98.676,59.045,92.84,53.08,87.623,59.871z"/>
				<path fill="#E2DAC5" stroke="#000000" stroke-width="0.5" stroke-miterlimit="10" d="M93.043,56.141
					c-4.52,0-8.188,3.666-8.188,8.188s3.666,8.188,8.188,8.188c4.523,0,8.189-3.666,8.189-8.188S97.564,56.141,93.043,56.141z
					 M93.043,71.621c-4.049,0-7.334-3.266-7.334-7.293s3.285-7.295,7.334-7.295c4.051,0,7.334,3.268,7.334,7.295
					S97.094,71.621,93.043,71.621z"/>
			</g>
			<g>
				<g>

						<rect x="55.918" y="18.168" fill="#6C6C6C" stroke="#000000" stroke-width="0.5" stroke-miterlimit="10" width="20.486" height="1.832"/>
					<g>

							<rect x="57.447" y="17.609" fill="#6C6C6C" stroke="#000000" stroke-width="0.5" stroke-miterlimit="10" width="1.297" height="3.054"/>

							<rect x="73.58" y="17.609" fill="#6C6C6C" stroke="#000000" stroke-width="0.5" stroke-miterlimit="10" width="1.293" height="3.054"/>

							<rect x="65.514" y="17.557" fill="#6C6C6C" stroke="#000000" stroke-width="0.5" stroke-miterlimit="10" width="1.297" height="3.053"/>
					</g>
				</g>
				<g>

						<rect x="55.918" y="30.204" fill="#6C6C6C" stroke="#000000" stroke-width="0.5" stroke-miterlimit="10" width="20.486" height="1.832"/>
					<g>

							<rect x="57.447" y="29.645" fill="#6C6C6C" stroke="#000000" stroke-width="0.5" stroke-miterlimit="10" width="1.297" height="3.054"/>

							<rect x="73.58" y="29.645" fill="#6C6C6C" stroke="#000000" stroke-width="0.5" stroke-miterlimit="10" width="1.293" height="3.054"/>

							<rect x="65.514" y="29.594" fill="#6C6C6C" stroke="#000000" stroke-width="0.5" stroke-miterlimit="10" width="1.297" height="3.053"/>
					</g>
				</g>
				<g>
					<path opacity="0.5" fill="#2B2B2B" enable-background="new    " d="M75.289,12.036c-15.446,21.28-20.031,44.292-10.24,51.399
						c9.791,7.105,30.252-4.385,45.697-25.664"/>
					<circle fill="#4C5E4F" stroke="#000000" stroke-width="0.5" stroke-miterlimit="10" cx="93.043" cy="24.904" r="20.5"/>
					<path fill="#774416" d="M85.77,36.717c-0.725-1.815-0.969-1.396-1.152,0.978c-0.607-1.765-1.156-1.576-2.127,0.231
						c-0.24-1.808-0.787-1.996-2.055-0.71c0.475-1.895,0.229-2.314-1.16-1.255c0.695-0.995,1.104-1.597,1.164-1.784
						c0.059-0.187-0.23,0.041-0.928,0.708c0.547-0.485,0.992-0.861,1.344-1.104c0.352-0.266,0.607-0.397,0.785-0.358
						c0.342-0.116,0.346,0.341,0.082,1.35c0.869-1.009,1.439-1.466,1.912-1.313c0.227,0.043,0.432,0.249,0.633,0.604
						c0.201,0.359,0.4,0.868,0.621,1.531C84.803,33.552,85.047,33.972,85.77,36.717z"/>
					<path fill="#774416" d="M91.154,28.597c-0.678,0.546-1.189,1.052-1.365,1.369c-0.174,0.318-0.008,0.447,0.674,0.354
						c-1.174,0.08-1.898,0.08-2.098-0.005c-0.283-0.155-0.041-0.396,0.748-0.772c-1.088,0.055-1.629-0.027-1.408-0.11
						c-0.336-0.536,0.09-1.072,1.141-1.439c-1.051-0.066-1.477,0.058-1.029,0.298c-0.48-0.557-0.088-0.996,0.855-0.854
						c-1.158,0.023-0.662-0.237,0.906-0.13c-0.23-0.489-0.178-0.038,0.119,0.736C89.965,27.998,90.477,28.277,91.154,28.597z"/>
					<path fill="#774416" d="M91.596,12.406c-0.68,0.546-1.189,1.052-1.365,1.369c-0.174,0.318-0.008,0.447,0.674,0.354
						c-1.174,0.08-1.898,0.08-2.098-0.005c-0.283-0.155-0.041-0.396,0.748-0.772c-1.09,0.055-1.629-0.027-1.408-0.11
						c-0.336-0.536,0.09-1.072,1.141-1.439c-1.051-0.066-1.477,0.058-1.029,0.298c-0.48-0.557-0.088-0.996,0.855-0.854
						c-1.158,0.023-0.662-0.237,0.906-0.13c-0.23-0.489-0.18-0.038,0.119,0.736C90.404,11.806,90.916,12.086,91.596,12.406z"/>
					<path fill="#774416" d="M89.879,39.565c1.408-0.263,2.016-0.871,2.084-1.89c1.434,1.019,2.041,1.627,1.68,0.858
						c0.201,1.435,0.129,2.004-0.33,2.592c-0.133-0.127-0.652-0.236-2.338-0.656C91.895,41.412,91.287,40.803,89.879,39.565z"/>
					<path fill="#774416" d="M92.449,22.218c-0.822-1.084-1.039-0.777-1.184,1.312c-0.252-0.732-0.484-1.02-0.736-0.872
						c-0.352,0.164-0.721,0.764-0.908,1.813c-0.24-1.05-0.277-1.649-0.191-1.914c-0.588-0.128-1.051,0.078-1.027,0.524
						c-0.346-0.765-0.205-1.289,0.107-1.721c-0.725-0.021-1.273,0.049-1.33-0.099c0.057-0.28,0.605-0.759,1.096-1.278
						c-0.189-0.109-0.439-0.259-0.707-0.628c0.582,0.046,1.148-0.127,1.439-0.314c0.184-0.118,0.092-0.25-0.219-0.448
						c0.738,0.198,1.238,0.33,1.617,0.491s0.635,0.352,0.928,0.637C91.41,19.809,91.627,20.278,92.449,22.218z"/>
					<path fill="#774416" d="M108.746,36.553c-0.637,2.177-0.857,2.673-0.844,1.322c-0.732,2.068-1.23,2.291-2.502,0.871
						c0.176,1.42-0.32,1.197-2.004-0.448c0.967,0.928,0.744,0.432-0.428-0.918c1.172,0.253,1.395-0.243,1.047-0.947
						c0.945,0.748,1.129,0.313,0.988-1.151c0.691,1.279,1.059,1.532,1.361,0.432c0.307,0.484,0.803,0.706,1.846,0.06
						C107.889,37.137,108.109,37.633,108.746,36.553z"/>
					<path fill="#774416" d="M78.803,20.784c2.176,0.637,2.672,0.859,1.32,0.845c2.068,0.732,2.291,1.229,0.871,2.502
						c1.42-0.177,1.197,0.319-0.447,2.004c0.928-0.967,0.432-0.745-0.918,0.427c0.252-1.172-0.242-1.394-0.947-1.047
						c0.748-0.946,0.313-1.129-1.15-0.988c1.279-0.691,1.531-1.058,0.432-1.361c0.484-0.308,0.705-0.804,0.061-1.847
						C79.387,21.643,79.881,21.421,78.803,20.784z"/>
					<path fill="#774416" d="M100.885,21.575c-0.338,0.755-0.432,1.004-0.324,0.796c0.107-0.207,0.418-0.871,0.984-1.62
						c-0.127,0.308,0.006,0.53,0.311,0.549c0.273-0.087,0.723-0.38,1.359-0.744c0.117,0.813,0.727,1.086,1.729,0.945
						c-0.119,1.023,0.152,1.632,1.059,1.742c-0.904,1.236-1.178,1.846,0.016,1.672c-2.074,1.056-2.686,1.329-1.1,0.521
						c-2.932,0.808-3.541,0.534-2.35-1.72c-1.555,1.029-2.098,0.943-1.996-0.409C100.605,22.856,100.711,22.264,100.885,21.575z"/>
					<path fill="#774416" d="M98.293,11.579c0.295,0.021,0.516-0.2,1.248-1.215c-0.186,1.015,0.035,1.236,1.221,1.228
						c-1.186,0.556-1.406,0.777-1.207,1.251C98.809,12.369,98.588,12.147,98.293,11.579z"/>

						<circle opacity="0.7" fill="#C4E6F5" stroke="#000000" stroke-width="0.5" stroke-miterlimit="10" enable-background="new    " cx="93.043" cy="25.016" r="20.5"/>

						<ellipse transform="matrix(0.6073 -0.7945 0.7945 0.6073 14.486 83.3947)" opacity="0.5" fill="#2B2B2B" enable-background="new    " cx="91.596" cy="27.045" rx="4.59" ry="2.09"/>
					<circle fill="#E2DAC5" stroke="#000000" stroke-width="0.5" stroke-miterlimit="10" cx="93.043" cy="25.016" r="2.375"/>
					<path opacity="0.6" fill="#647175" enable-background="new    " d="M76.441,12.992c0,0,33.846-12.351,34.416,22.175
						c0,0,7.711-12.689-2.82-24.535C108.037,10.632,91.357-6.422,76.441,12.992z"/>
					<path fill="#E2DAC5" stroke="#000000" stroke-width="0.5" stroke-miterlimit="10" d="M93.043,2.766
						c-12.287,0-22.25,9.961-22.25,22.25c0,12.289,9.963,22.25,22.25,22.25c12.289,0,22.25-9.962,22.25-22.25
						C115.293,12.728,105.332,2.766,93.043,2.766z M93.043,45.516c-11.32,0-20.5-9.179-20.5-20.5c0-11.321,9.18-20.5,20.5-20.5
						c11.322,0,20.5,9.178,20.5,20.5C113.543,36.338,104.365,45.516,93.043,45.516z"/>
				</g>
			</g>
		</g>
		<path fill="#2D2D2D" d="M65.184,18.94c0,0,0.146,0.438-0.438,0.625s-3.625,0.271-3.625,0.271h4.08L65.184,18.94z"/>
	</g>
</g>
<g id="batiment">
	<g>
		<polygon opacity="0.5" fill="#2B2B2B" enable-background="new    " points="6.756,7.059 0,12.587 0,73.707 23.058,73.707
			56.631,46.238 		"/>
		<path fill="#6C6C6C" stroke="#000000" stroke-width="0.5" stroke-miterlimit="10" d="M6.756,46.238V26.363h49.875v19.875
			c0,0.141-0.235,0.254-0.501,0.254c-0.264,0-0.479-0.113-0.479-0.254c0-0.142-0.215-0.256-0.479-0.256
			c-0.265,0-0.479,0.114-0.479,0.256l0,0c0,0.141-0.214,0.254-0.479,0.254s-0.48-0.113-0.48-0.254c0-0.142-0.214-0.256-0.479-0.256
			s-0.479,0.114-0.479,0.256c0,0.141-0.214,0.254-0.479,0.254c-0.267,0-0.481-0.113-0.481-0.254c0-0.142-0.214-0.256-0.479-0.256
			c-0.264,0-0.479,0.114-0.479,0.256c0,0.141-0.215,0.254-0.479,0.254s-0.479-0.113-0.479-0.254c0-0.142-0.214-0.256-0.479-0.256
			s-0.479,0.114-0.479,0.256c0,0.141-0.215,0.254-0.479,0.254c-0.266,0-0.479-0.113-0.479-0.254c0-0.142-0.215-0.256-0.48-0.256
			c-0.266,0-0.48,0.114-0.48,0.256c0,0.141-0.213,0.254-0.479,0.254c-0.265,0-0.48-0.113-0.48-0.254
			c0-0.142-0.214-0.256-0.479-0.256s-0.479,0.114-0.479,0.256c0,0.141-0.215,0.254-0.479,0.254c-0.264,0-0.479-0.113-0.479-0.254
			c0-0.142-0.215-0.256-0.479-0.256c-0.266,0-0.48,0.114-0.48,0.256c0,0.141-0.214,0.254-0.479,0.254
			c-0.266,0-0.48-0.113-0.48-0.254c0-0.142-0.213-0.256-0.479-0.256c-0.264,0-0.479,0.114-0.479,0.256
			c0,0.141-0.215,0.254-0.479,0.254c-0.264,0-0.479-0.113-0.479-0.254c0-0.142-0.215-0.256-0.479-0.256
			c-0.264,0-0.479,0.114-0.479,0.256c0,0.141-0.214,0.254-0.479,0.254c-0.266,0-0.479-0.113-0.479-0.254
			c0-0.142-0.215-0.256-0.479-0.256c-0.266,0-0.481,0.114-0.481,0.256c0,0.141-0.213,0.254-0.479,0.254
			c-0.266,0-0.479-0.113-0.479-0.254c0-0.142-0.215-0.256-0.479-0.256s-0.479,0.114-0.479,0.256l0,0
			c0,0.141-0.215,0.254-0.479,0.254s-0.48-0.113-0.48-0.254c0-0.142-0.214-0.256-0.479-0.256c-0.266,0-0.479,0.114-0.479,0.256
			c0,0.141-0.214,0.254-0.479,0.254c-0.266,0-0.48-0.113-0.48-0.254c0-0.142-0.214-0.256-0.48-0.256
			c-0.264,0-0.479,0.114-0.479,0.256c0,0.141-0.214,0.254-0.479,0.254s-0.479-0.113-0.479-0.254c0-0.142-0.214-0.256-0.479-0.256
			c-0.264,0-0.479,0.114-0.479,0.256c0,0.141-0.215,0.254-0.479,0.254c-0.266,0-0.479-0.113-0.479-0.254
			c0-0.142-0.215-0.256-0.479-0.256c-0.267,0-0.481,0.114-0.481,0.256c0,0.141-0.213,0.254-0.479,0.254
			c-0.264,0-0.479-0.113-0.479-0.254c0-0.142-0.215-0.256-0.479-0.256c-0.265,0-0.479,0.114-0.479,0.256
			c0,0.141-0.214,0.254-0.479,0.254s-0.479-0.113-0.479-0.254c0-0.142-0.215-0.256-0.479-0.256c-0.265,0-0.479,0.114-0.479,0.256
			c0,0.141-0.215,0.254-0.479,0.254c-0.267,0-0.482-0.113-0.482-0.254c0-0.142-0.213-0.256-0.479-0.256
			c-0.265,0-0.479,0.114-0.479,0.256c0,0.141-0.215,0.254-0.479,0.254c-0.264,0-0.479-0.113-0.479-0.254
			c0-0.142-0.214-0.256-0.479-0.256s-0.479,0.114-0.479,0.256c0,0.141-0.214,0.254-0.479,0.254c-0.266,0-0.479-0.113-0.479-0.254
			c0-0.142-0.215-0.256-0.48-0.256c-0.266,0-0.481,0.114-0.481,0.256c0,0.141-0.213,0.254-0.479,0.254s-0.479-0.113-0.479-0.254
			c0-0.142-0.214-0.256-0.479-0.256s-0.479,0.114-0.479,0.256l0,0c0,0.141-0.215,0.254-0.479,0.254c-0.264,0-0.48-0.113-0.48-0.254
			c0-0.142-0.214-0.256-0.479-0.256c-0.267,0-0.48,0.114-0.48,0.256c0,0.141-0.214,0.254-0.479,0.254
			c-0.266,0-0.479-0.113-0.479-0.254c0-0.142-0.214-0.256-0.48-0.256c-0.263,0-0.479,0.114-0.479,0.256
			c0,0.141-0.215,0.254-0.479,0.254c-0.265,0-0.479-0.113-0.479-0.254c0-0.142-0.214-0.256-0.479-0.256
			c-0.265,0-0.479,0.114-0.479,0.256c0,0.141-0.215,0.254-0.479,0.254c-0.266,0-0.479-0.113-0.479-0.254
			c0-0.142-0.215-0.256-0.479-0.256c-0.266,0-0.48,0.114-0.48,0.256c0,0.141-0.213,0.254-0.479,0.254
			c-0.265,0-0.48-0.113-0.48-0.254c0-0.142-0.215-0.256-0.479-0.256S6.756,46.097,6.756,46.238z"/>
		<g opacity="0.7">
			<path fill="#2D2D2D" d="M8.514,45.792L8.493,30.563c0,0,0.042,7.837-0.778,15.759l0.273,0.298c0,0,0.079-0.132,0.271-0.208
				C8.623,46.259,8.514,45.792,8.514,45.792z"/>
			<path fill="#A7A7A7" d="M7.603,29.734l0.022,15.228c0,0-0.043-6.884,0.778-14.804l-0.274-0.3c0,0-0.078-0.821-0.27-0.742
				C7.493,29.264,7.603,29.734,7.603,29.734z"/>
			<path fill="#A7A7A7" d="M9.122,29.734l0.021,15.228c0,0-0.043-6.884,0.778-14.804l-0.273-0.3c0,0-0.079-0.821-0.27-0.742
				C9.012,29.264,9.122,29.734,9.122,29.734z"/>
			<path fill="#A7A7A7" d="M11.133,29.734l0.022,15.228c0,0-0.044-6.884,0.777-14.804l-0.273-0.3c0,0-0.078-0.821-0.27-0.742
				C11.023,29.264,11.133,29.734,11.133,29.734z"/>
			<path fill="#A7A7A7" d="M12.911,29.734l0.023,15.228c0,0-0.045-6.884,0.776-14.804l-0.273-0.3c0,0-0.078-0.821-0.27-0.742
				C12.802,29.264,12.911,29.734,12.911,29.734z"/>
			<path fill="#A7A7A7" d="M16.631,29.734l0.023,15.228c0,0-0.043-6.884,0.777-14.804l-0.272-0.3c0,0-0.079-0.821-0.271-0.742
				C16.522,29.264,16.631,29.734,16.631,29.734z"/>
			<path fill="#A7A7A7" d="M18.643,29.734l0.022,15.228c0,0-0.043-6.884,0.778-14.804l-0.274-0.3c0,0-0.077-0.821-0.27-0.742
				C18.534,29.264,18.643,29.734,18.643,29.734z"/>
			<path fill="#A7A7A7" d="M20.439,29.734l0.023,15.228c0,0-0.044-6.884,0.777-14.804l-0.273-0.3c0,0-0.079-0.821-0.27-0.742
				C20.331,29.264,20.439,29.734,20.439,29.734z"/>
			<path fill="#A7A7A7" d="M22.452,29.734l0.022,15.228c0,0-0.043-6.884,0.777-14.804l-0.273-0.3c0,0-0.078-0.821-0.27-0.742
				C22.34,29.264,22.452,29.734,22.452,29.734z"/>
			<path fill="#A7A7A7" d="M24.362,29.734l0.023,15.228c0,0-0.043-6.884,0.778-14.804l-0.273-0.3c0,0-0.079-0.821-0.271-0.742
				C24.253,29.264,24.362,29.734,24.362,29.734z"/>
			<path fill="#2D2D2D" d="M10.485,45.792l-0.022-15.229c0,0,0.044,7.837-0.778,15.759l0.274,0.298c0,0,0.079-0.132,0.27-0.208
				C10.595,46.259,10.485,45.792,10.485,45.792z"/>
			<path fill="#2D2D2D" d="M12.323,45.792l-0.022-15.229c0,0,0.044,7.837-0.777,15.759l0.273,0.298c0,0,0.077-0.132,0.269-0.208
				C12.433,46.259,12.323,45.792,12.323,45.792z"/>
			<path fill="#2D2D2D" d="M14.292,45.792l-0.021-15.229c0,0,0.043,7.837-0.778,15.759l0.273,0.298c0,0,0.079-0.132,0.271-0.208
				C14.401,46.259,14.292,45.792,14.292,45.792z"/>
			<path fill="#2D2D2D" d="M16.132,45.792l-0.022-15.229c0,0,0.043,7.837-0.778,15.759l0.273,0.298c0,0,0.079-0.132,0.271-0.208
				C16.241,46.259,16.132,45.792,16.132,45.792z"/>
			<path fill="#2D2D2D" d="M18.014,45.792l-0.023-15.229c0,0,0.045,7.837-0.777,15.759l0.273,0.298c0,0,0.079-0.132,0.27-0.208
				C18.124,46.259,18.014,45.792,18.014,45.792z"/>
			<path fill="#2D2D2D" d="M19.895,45.792l-0.022-15.229c0,0,0.044,7.837-0.777,15.759l0.272,0.298c0,0,0.079-0.132,0.271-0.208
				C20.004,46.259,19.895,45.792,19.895,45.792z"/>
			<path fill="#2D2D2D" d="M21.821,45.792l-0.022-15.229c0,0,0.042,7.837-0.777,15.759l0.273,0.298c0,0,0.078-0.132,0.271-0.208
				C21.931,46.259,21.821,45.792,21.821,45.792z"/>
			<path fill="#2D2D2D" d="M23.704,45.792l-0.023-15.229c0,0,0.045,7.837-0.777,15.759l0.273,0.298c0,0,0.079-0.132,0.271-0.208
				C23.813,46.259,23.704,45.792,23.704,45.792z"/>
		</g>
		<g opacity="0.7">
			<path fill="#2D2D2D" d="M25.681,45.798L25.66,30.67c0,0,0.042,7.785-0.778,15.654l0.273,0.296c0,0,0.079-0.131,0.271-0.207
				C25.79,46.262,25.681,45.798,25.681,45.798z"/>
			<path fill="#A7A7A7" d="M26.289,29.847l0.021,15.127c0,0-0.043-6.839,0.778-14.706l-0.273-0.298c0,0-0.079-0.816-0.27-0.737
				C26.179,29.379,26.289,29.847,26.289,29.847z"/>
			<path fill="#A7A7A7" d="M28.3,29.847l0.022,15.127c0,0-0.044-6.839,0.777-14.706l-0.273-0.298c0,0-0.078-0.816-0.27-0.737
				C28.19,29.379,28.3,29.847,28.3,29.847z"/>
			<path fill="#A7A7A7" d="M30.078,29.847l0.023,15.127c0,0-0.045-6.839,0.776-14.706l-0.273-0.298c0,0-0.078-0.816-0.27-0.737
				C29.969,29.379,30.078,29.847,30.078,29.847z"/>
			<path fill="#A7A7A7" d="M32.09,29.847l0.022,15.127c0,0-0.044-6.839,0.777-14.706l-0.272-0.298c0,0-0.08-0.816-0.271-0.737
				C31.979,29.379,32.09,29.847,32.09,29.847z"/>
			<path fill="#A7A7A7" d="M33.798,29.847l0.023,15.127c0,0-0.043-6.839,0.777-14.706l-0.272-0.298c0,0-0.079-0.816-0.271-0.737
				C33.689,29.379,33.798,29.847,33.798,29.847z"/>
			<path fill="#A7A7A7" d="M35.81,29.847l0.022,15.127c0,0-0.043-6.839,0.778-14.706l-0.274-0.298c0,0-0.077-0.816-0.27-0.737
				C35.701,29.379,35.81,29.847,35.81,29.847z"/>
			<path fill="#A7A7A7" d="M37.606,29.847l0.023,15.127c0,0-0.044-6.839,0.777-14.706l-0.273-0.298c0,0-0.079-0.816-0.27-0.737
				C37.498,29.379,37.606,29.847,37.606,29.847z"/>
			<path fill="#A7A7A7" d="M39.619,29.847l0.022,15.127c0,0-0.043-6.839,0.777-14.706l-0.273-0.298c0,0-0.078-0.816-0.27-0.737
				C39.507,29.379,39.619,29.847,39.619,29.847z"/>
			<path fill="#A7A7A7" d="M41.529,29.847l0.023,15.127c0,0-0.043-6.839,0.778-14.706l-0.273-0.298c0,0-0.079-0.816-0.271-0.737
				C41.42,29.379,41.529,29.847,41.529,29.847z"/>
			<path fill="#2D2D2D" d="M27.652,45.798L27.629,30.67c0,0,0.044,7.785-0.778,15.654l0.274,0.296c0,0,0.079-0.131,0.27-0.207
				C27.762,46.262,27.652,45.798,27.652,45.798z"/>
			<path fill="#2D2D2D" d="M29.49,45.798L29.468,30.67c0,0,0.044,7.785-0.777,15.654l0.273,0.296c0,0,0.077-0.131,0.269-0.207
				C29.6,46.262,29.49,45.798,29.49,45.798z"/>
			<path fill="#2D2D2D" d="M31.459,45.798L31.438,30.67c0,0,0.043,7.785-0.778,15.654l0.273,0.296c0,0,0.079-0.131,0.271-0.207
				C31.568,46.262,31.459,45.798,31.459,45.798z"/>
			<path fill="#2D2D2D" d="M33.299,45.798L33.276,30.67c0,0,0.043,7.785-0.778,15.654l0.273,0.296c0,0,0.079-0.131,0.271-0.207
				C33.408,46.262,33.299,45.798,33.299,45.798z"/>
			<path fill="#2D2D2D" d="M35.181,45.798L35.158,30.67c0,0,0.045,7.785-0.777,15.654l0.273,0.296c0,0,0.079-0.131,0.27-0.207
				C35.291,46.262,35.181,45.798,35.181,45.798z"/>
			<path fill="#2D2D2D" d="M37.062,45.798L37.04,30.67c0,0,0.044,7.785-0.777,15.654l0.272,0.296c0,0,0.079-0.131,0.271-0.207
				C37.171,46.262,37.062,45.798,37.062,45.798z"/>
			<path fill="#2D2D2D" d="M38.988,45.798L38.966,30.67c0,0,0.042,7.785-0.777,15.654l0.273,0.296c0,0,0.078-0.131,0.271-0.207
				C39.098,46.262,38.988,45.798,38.988,45.798z"/>
			<path fill="#2D2D2D" d="M40.871,45.798L40.848,30.67c0,0,0.045,7.785-0.777,15.654l0.273,0.296c0,0,0.079-0.131,0.271-0.207
				C40.98,46.262,40.871,45.798,40.871,45.798z"/>
		</g>
		<g opacity="0.7">
			<path fill="#2D2D2D" d="M42.994,45.798L42.973,30.67c0,0,0.042,7.785-0.778,15.654l0.273,0.296c0,0,0.079-0.131,0.271-0.207
				C43.103,46.262,42.994,45.798,42.994,45.798z"/>
			<path fill="#A7A7A7" d="M43.602,29.847l0.021,15.127c0,0-0.043-6.839,0.778-14.706l-0.273-0.298c0,0-0.079-0.816-0.27-0.737
				C43.492,29.379,43.602,29.847,43.602,29.847z"/>
			<path fill="#A7A7A7" d="M45.613,29.847l0.022,15.127c0,0-0.044-6.839,0.777-14.706l-0.273-0.298c0,0-0.078-0.816-0.27-0.737
				C45.503,29.379,45.613,29.847,45.613,29.847z"/>
			<path fill="#A7A7A7" d="M47.391,29.847l0.023,15.127c0,0-0.045-6.839,0.776-14.706l-0.273-0.298c0,0-0.078-0.816-0.27-0.737
				C47.282,29.379,47.391,29.847,47.391,29.847z"/>
			<path fill="#A7A7A7" d="M49.403,29.847l0.022,15.127c0,0-0.044-6.839,0.777-14.706l-0.272-0.298c0,0-0.08-0.816-0.271-0.737
				C49.292,29.379,49.403,29.847,49.403,29.847z"/>
			<path fill="#A7A7A7" d="M51.111,29.847l0.023,15.127c0,0-0.043-6.839,0.777-14.706l-0.272-0.298c0,0-0.079-0.816-0.271-0.737
				C51.002,29.379,51.111,29.847,51.111,29.847z"/>
			<path fill="#A7A7A7" d="M53.123,29.847l0.022,15.127c0,0-0.043-6.839,0.778-14.706l-0.274-0.298c0,0-0.077-0.816-0.27-0.737
				C53.014,29.379,53.123,29.847,53.123,29.847z"/>
			<path fill="#A7A7A7" d="M54.919,29.847l0.023,15.127c0,0-0.044-6.839,0.777-14.706l-0.273-0.298c0,0-0.079-0.816-0.27-0.737
				C54.811,29.379,54.919,29.847,54.919,29.847z"/>
			<path fill="#2D2D2D" d="M44.965,45.798L44.942,30.67c0,0,0.044,7.785-0.778,15.654l0.274,0.296c0,0,0.079-0.131,0.27-0.207
				C45.075,46.262,44.965,45.798,44.965,45.798z"/>
			<path fill="#2D2D2D" d="M46.803,45.798L46.781,30.67c0,0,0.044,7.785-0.777,15.654l0.273,0.296c0,0,0.077-0.131,0.269-0.207
				C46.913,46.262,46.803,45.798,46.803,45.798z"/>
			<path fill="#2D2D2D" d="M48.772,45.798L48.75,30.67c0,0,0.043,7.785-0.778,15.654l0.273,0.296c0,0,0.079-0.131,0.271-0.207
				C48.881,46.262,48.772,45.798,48.772,45.798z"/>
			<path fill="#2D2D2D" d="M50.612,45.798L50.589,30.67c0,0,0.043,7.785-0.778,15.654l0.273,0.296c0,0,0.079-0.131,0.271-0.207
				C50.721,46.262,50.612,45.798,50.612,45.798z"/>
			<path fill="#2D2D2D" d="M52.494,45.798L52.471,30.67c0,0,0.045,7.785-0.777,15.654l0.273,0.296c0,0,0.079-0.131,0.27-0.207
				C52.604,46.262,52.494,45.798,52.494,45.798z"/>
			<path fill="#2D2D2D" d="M54.375,45.798L54.353,30.67c0,0,0.044,7.785-0.777,15.654l0.272,0.296c0,0,0.079-0.131,0.271-0.207
				C54.484,46.262,54.375,45.798,54.375,45.798z"/>
			<path fill="#2D2D2D" d="M56.301,45.798L56.279,30.67c0,0,0.042,7.785-0.777,15.654l0.273,0.296c0,0,0.078-0.131,0.271-0.207
				C56.411,46.262,56.301,45.798,56.301,45.798z"/>
		</g>
		<path fill="#6C6C6C" stroke="#000000" stroke-width="0.5" stroke-miterlimit="10" d="M6.756,6.488
			c0,0.142,0.215,0.256,0.479,0.256s0.479-0.114,0.479-0.256c0-0.141,0.215-0.254,0.48-0.254c0.266,0,0.479,0.113,0.479,0.254
			c0,0.142,0.215,0.256,0.48,0.256c0.264,0,0.479-0.114,0.479-0.256c0-0.141,0.213-0.254,0.479-0.254
			c0.265,0,0.479,0.113,0.479,0.254c0,0.142,0.214,0.256,0.479,0.256c0.265,0,0.479-0.114,0.479-0.256
			c0-0.141,0.215-0.254,0.479-0.254c0.264,0,0.479,0.113,0.479,0.254c0,0.142,0.216,0.256,0.479,0.256
			c0.266,0,0.48-0.114,0.48-0.256c0-0.141,0.214-0.254,0.479-0.254c0.265,0,0.479,0.113,0.479,0.254c0,0.142,0.213,0.256,0.48,0.256
			c0.264,0,0.479-0.114,0.479-0.256c0-0.141,0.216-0.254,0.48-0.254c0.265,0,0.479,0.113,0.479,0.254l0,0
			c0,0.142,0.214,0.256,0.479,0.256s0.479-0.114,0.479-0.256c0-0.141,0.214-0.254,0.479-0.254s0.479,0.113,0.479,0.254
			c0,0.142,0.215,0.256,0.481,0.256c0.265,0,0.48-0.114,0.48-0.256c0-0.141,0.213-0.254,0.479-0.254
			c0.265,0,0.479,0.113,0.479,0.254c0,0.142,0.215,0.256,0.479,0.256s0.479-0.114,0.479-0.256c0-0.141,0.215-0.254,0.479-0.254
			c0.265,0,0.479,0.113,0.479,0.254c0,0.142,0.214,0.256,0.479,0.256c0.266,0,0.479-0.114,0.479-0.256
			c0-0.141,0.215-0.254,0.482-0.254c0.264,0,0.479,0.113,0.479,0.254c0,0.142,0.213,0.256,0.479,0.256
			c0.265,0,0.479-0.114,0.479-0.256c0-0.141,0.214-0.254,0.479-0.254s0.479,0.113,0.479,0.254c0,0.142,0.215,0.256,0.479,0.256
			c0.264,0,0.479-0.114,0.479-0.256c0-0.141,0.215-0.254,0.479-0.254c0.267,0,0.479,0.113,0.479,0.254
			c0,0.142,0.214,0.256,0.481,0.256c0.264,0,0.479-0.114,0.479-0.256c0-0.141,0.213-0.254,0.479-0.254
			c0.264,0,0.479,0.113,0.479,0.254c0,0.142,0.215,0.256,0.479,0.256c0.265,0,0.479-0.114,0.479-0.256
			c0-0.141,0.214-0.254,0.479-0.254s0.479,0.113,0.479,0.254c0,0.142,0.215,0.256,0.479,0.256c0.266,0,0.48-0.114,0.48-0.256
			c0-0.141,0.214-0.254,0.48-0.254c0.265,0,0.479,0.113,0.479,0.254c0,0.142,0.213,0.256,0.479,0.256
			c0.266,0,0.479-0.114,0.479-0.256c0-0.141,0.216-0.254,0.48-0.254s0.479,0.113,0.479,0.254l0,0c0,0.142,0.215,0.256,0.479,0.256
			s0.479-0.114,0.479-0.256c0-0.141,0.214-0.254,0.479-0.254c0.266,0,0.479,0.113,0.479,0.254c0,0.142,0.215,0.256,0.481,0.256
			c0.264,0,0.479-0.114,0.479-0.256c0-0.141,0.213-0.254,0.479-0.254c0.265,0,0.479,0.113,0.479,0.254
			c0,0.142,0.215,0.256,0.479,0.256c0.265,0,0.479-0.114,0.479-0.256c0-0.141,0.215-0.254,0.479-0.254
			c0.265,0,0.479,0.113,0.479,0.254c0,0.142,0.215,0.256,0.479,0.256c0.266,0,0.479-0.114,0.479-0.256
			c0-0.141,0.214-0.254,0.48-0.254c0.265,0,0.479,0.113,0.479,0.254c0,0.142,0.214,0.256,0.48,0.256
			c0.264,0,0.479-0.114,0.479-0.256c0-0.141,0.215-0.254,0.479-0.254c0.265,0,0.479,0.113,0.479,0.254
			c0,0.142,0.214,0.256,0.479,0.256s0.479-0.114,0.479-0.256c0-0.141,0.215-0.254,0.48-0.254c0.265,0,0.479,0.113,0.479,0.254
			c0,0.142,0.215,0.256,0.48,0.256c0.265,0,0.48-0.114,0.48-0.256c0-0.141,0.213-0.254,0.479-0.254c0.264,0,0.479,0.113,0.479,0.254
			c0,0.142,0.215,0.256,0.479,0.256s0.479-0.114,0.479-0.256c0-0.141,0.214-0.254,0.479-0.254s0.479,0.113,0.479,0.254
			c0,0.142,0.215,0.256,0.479,0.256c0.266,0,0.479-0.114,0.479-0.256c0-0.141,0.214-0.254,0.481-0.254
			c0.265,0,0.479,0.113,0.479,0.254c0,0.142,0.213,0.256,0.479,0.256s0.479-0.114,0.479-0.256c0-0.141,0.215-0.254,0.48-0.254
			s0.479,0.113,0.479,0.254l0,0c0,0.142,0.215,0.256,0.479,0.256c0.264,0,0.479-0.114,0.479-0.256c0-0.141,0.214-0.254,0.479-0.254
			c0.266,0,0.501,0.113,0.501,0.254v19.875H6.756V6.488z"/>

			<rect x="6.437" y="24.863" fill="#969696" stroke="#000000" stroke-width="0.5" stroke-miterlimit="10" width="50.516" height="2.875"/>
		<polygon opacity="0.5" fill="#2B2B2B" enable-background="new    " points="56.631,27.803 27.861,29.227 6.749,29.227
			6.756,27.968 8.193,27.803 29.089,27.803 		"/>
		<g opacity="0.7">
			<path fill="#2D2D2D" d="M56.04,7.371l0.022,15.229c0,0-0.043-7.837,0.811-15.759l-0.284-0.298c0,0-0.082,0.132-0.282,0.208
				C55.927,6.904,56.04,7.371,56.04,7.371z"/>
			<path fill="#A7A7A7" d="M55.407,23.428L55.385,8.201c0,0,0.045,6.884-0.811,14.804l0.285,0.3c0,0,0.082,0.821,0.281,0.742
				C55.522,23.899,55.407,23.428,55.407,23.428z"/>
			<path fill="#A7A7A7" d="M53.312,23.428L53.289,8.201c0,0,0.046,6.884-0.81,14.804l0.285,0.3c0,0,0.082,0.821,0.281,0.742
				C53.426,23.899,53.312,23.428,53.312,23.428z"/>
			<path fill="#A7A7A7" d="M51.458,23.428L51.434,8.201c0,0,0.047,6.884-0.809,14.804l0.285,0.3c0,0,0.082,0.821,0.281,0.742
				C51.573,23.899,51.458,23.428,51.458,23.428z"/>
			<path fill="#A7A7A7" d="M47.583,23.428L47.559,8.201c0,0,0.044,6.884-0.81,14.804l0.284,0.3c0,0,0.083,0.821,0.283,0.742
				C47.696,23.899,47.583,23.428,47.583,23.428z"/>
			<path fill="#A7A7A7" d="M49.346,23.428L49.322,8.201c0,0,0.045,6.884-0.81,14.804l0.284,0.3c0,0,0.082,0.821,0.283,0.742
				C49.458,23.899,49.346,23.428,49.346,23.428z"/>
			<path fill="#A7A7A7" d="M45.486,23.428L45.463,8.201c0,0,0.045,6.884-0.811,14.804l0.286,0.3c0,0,0.081,0.821,0.282,0.742
				C45.6,23.899,45.486,23.428,45.486,23.428z"/>
			<path fill="#A7A7A7" d="M43.614,23.428L43.59,8.201c0,0,0.046,6.884-0.81,14.804l0.285,0.3c0,0,0.082,0.821,0.281,0.742
				C43.728,23.899,43.614,23.428,43.614,23.428z"/>
			<path fill="#A7A7A7" d="M41.517,23.428L41.494,8.201c0,0,0.045,6.884-0.81,14.804l0.285,0.3c0,0,0.082,0.821,0.281,0.742
				C41.634,23.899,41.517,23.428,41.517,23.428z"/>
			<path fill="#A7A7A7" d="M39.527,23.428L39.503,8.201c0,0,0.045,6.884-0.811,14.804l0.285,0.3c0,0,0.082,0.821,0.283,0.742
				C39.641,23.899,39.527,23.428,39.527,23.428z"/>
			<path fill="#2D2D2D" d="M53.987,7.371l0.023,15.229c0,0-0.046-7.837,0.811-15.759l-0.286-0.298c0,0-0.082,0.132-0.281,0.208
				C53.872,6.904,53.987,7.371,53.987,7.371z"/>
			<path fill="#2D2D2D" d="M52.071,7.371l0.023,15.229c0,0-0.046-7.837,0.81-15.759L52.62,6.542c0,0-0.081,0.132-0.28,0.208
				C51.957,6.904,52.071,7.371,52.071,7.371z"/>
			<path fill="#2D2D2D" d="M50.02,7.371l0.022,15.229c0,0-0.044-7.837,0.811-15.759l-0.285-0.298c0,0-0.082,0.132-0.282,0.208
				C49.906,6.904,50.02,7.371,50.02,7.371z"/>
			<path fill="#2D2D2D" d="M48.103,7.371l0.023,15.229c0,0-0.045-7.837,0.811-15.759l-0.284-0.298c0,0-0.082,0.132-0.282,0.208
				C47.989,6.904,48.103,7.371,48.103,7.371z"/>
			<path fill="#2D2D2D" d="M46.142,7.371l0.024,15.229c0,0-0.047-7.837,0.81-15.759L46.69,6.542c0,0-0.082,0.132-0.281,0.208
				C46.027,6.904,46.142,7.371,46.142,7.371z"/>
			<path fill="#2D2D2D" d="M44.182,7.371l0.023,15.229c0,0-0.046-7.837,0.81-15.759L44.73,6.542c0,0-0.083,0.132-0.282,0.208
				C44.067,6.904,44.182,7.371,44.182,7.371z"/>
			<path fill="#2D2D2D" d="M42.174,7.371l0.023,15.229c0,0-0.044-7.837,0.81-15.759l-0.285-0.298c0,0-0.081,0.132-0.282,0.208
				C42.061,6.904,42.174,7.371,42.174,7.371z"/>
			<path fill="#2D2D2D" d="M40.212,7.371l0.024,15.229c0,0-0.046-7.837,0.81-15.759l-0.285-0.298c0,0-0.082,0.132-0.282,0.208
				C40.099,6.904,40.212,7.371,40.212,7.371z"/>
		</g>
		<g opacity="0.7">
			<path fill="#2D2D2D" d="M38.438,7.365l0.021,15.127c0,0-0.042-7.785,0.778-15.654l-0.273-0.296c0,0-0.079,0.131-0.271,0.207
				C38.33,6.901,38.438,7.365,38.438,7.365z"/>
			<path fill="#A7A7A7" d="M37.831,23.316L37.81,8.189c0,0,0.043,6.839-0.778,14.706l0.273,0.298c0,0,0.079,0.816,0.27,0.737
				C37.941,23.784,37.831,23.316,37.831,23.316z"/>
			<path fill="#A7A7A7" d="M35.82,23.316L35.798,8.189c0,0,0.044,6.839-0.777,14.706l0.273,0.298c0,0,0.078,0.816,0.27,0.737
				C35.929,23.784,35.82,23.316,35.82,23.316z"/>
			<path fill="#A7A7A7" d="M34.042,23.316L34.018,8.189c0,0,0.045,6.839-0.776,14.706l0.273,0.298c0,0,0.078,0.816,0.27,0.737
				C34.151,23.784,34.042,23.316,34.042,23.316z"/>
			<path fill="#A7A7A7" d="M32.029,23.316L32.007,8.189c0,0,0.044,6.839-0.777,14.706l0.272,0.298c0,0,0.08,0.816,0.271,0.737
				C32.141,23.784,32.029,23.316,32.029,23.316z"/>
			<path fill="#A7A7A7" d="M30.322,23.316L30.299,8.189c0,0,0.043,6.839-0.777,14.706l0.272,0.298c0,0,0.079,0.816,0.271,0.737
				C30.43,23.784,30.322,23.316,30.322,23.316z"/>
			<path fill="#A7A7A7" d="M28.31,23.316L28.287,8.189c0,0,0.043,6.839-0.778,14.706l0.274,0.298c0,0,0.077,0.816,0.27,0.737
				C28.419,23.784,28.31,23.316,28.31,23.316z"/>
			<path fill="#A7A7A7" d="M26.513,23.316L26.49,8.189c0,0,0.044,6.839-0.777,14.706l0.273,0.298c0,0,0.079,0.816,0.27,0.737
				C26.622,23.784,26.513,23.316,26.513,23.316z"/>
			<path fill="#A7A7A7" d="M24.5,23.316L24.479,8.189c0,0,0.043,6.839-0.777,14.706l0.273,0.298c0,0,0.078,0.816,0.27,0.737
				C24.612,23.784,24.5,23.316,24.5,23.316z"/>
			<path fill="#A7A7A7" d="M22.591,23.316L22.568,8.189c0,0,0.043,6.839-0.778,14.706l0.273,0.298c0,0,0.079,0.816,0.271,0.737
				C22.7,23.784,22.591,23.316,22.591,23.316z"/>
			<path fill="#2D2D2D" d="M36.468,7.365l0.022,15.127c0,0-0.044-7.785,0.778-15.654l-0.274-0.296c0,0-0.079,0.131-0.27,0.207
				C36.357,6.901,36.468,7.365,36.468,7.365z"/>
			<path fill="#2D2D2D" d="M34.629,7.365l0.022,15.127c0,0-0.044-7.785,0.777-15.654l-0.273-0.296c0,0-0.077,0.131-0.269,0.207
				C34.52,6.901,34.629,7.365,34.629,7.365z"/>
			<path fill="#2D2D2D" d="M32.661,7.365l0.021,15.127c0,0-0.043-7.785,0.778-15.654l-0.273-0.296c0,0-0.079,0.131-0.271,0.207
				C32.552,6.901,32.661,7.365,32.661,7.365z"/>
			<path fill="#2D2D2D" d="M30.821,7.365l0.022,15.127c0,0-0.043-7.785,0.778-15.654l-0.273-0.296c0,0-0.079,0.131-0.271,0.207
				C30.711,6.901,30.821,7.365,30.821,7.365z"/>
			<path fill="#2D2D2D" d="M28.938,7.365l0.023,15.127c0,0-0.045-7.785,0.777-15.654l-0.273-0.296c0,0-0.079,0.131-0.27,0.207
				C28.829,6.901,28.938,7.365,28.938,7.365z"/>
			<path fill="#2D2D2D" d="M27.058,7.365l0.022,15.127c0,0-0.044-7.785,0.777-15.654l-0.272-0.296c0,0-0.079,0.131-0.271,0.207
				C26.948,6.901,27.058,7.365,27.058,7.365z"/>
			<path fill="#2D2D2D" d="M25.131,7.365l0.022,15.127c0,0-0.042-7.785,0.777-15.654l-0.273-0.296c0,0-0.078,0.131-0.271,0.207
				C25.022,6.901,25.131,7.365,25.131,7.365z"/>
			<path fill="#2D2D2D" d="M23.249,7.365l0.023,15.127c0,0-0.045-7.785,0.777-15.654l-0.273-0.296c0,0-0.079,0.131-0.271,0.207
				C23.139,6.901,23.249,7.365,23.249,7.365z"/>
		</g>
		<g opacity="0.7">
			<path fill="#2D2D2D" d="M21.128,7.365l0.021,15.127c0,0-0.042-7.785,0.778-15.654l-0.273-0.296c0,0-0.079,0.131-0.271,0.207
				C21.02,6.901,21.128,7.365,21.128,7.365z"/>
			<path fill="#A7A7A7" d="M20.521,23.316L20.5,8.189c0,0,0.043,6.839-0.778,14.706l0.273,0.298c0,0,0.079,0.816,0.27,0.737
				C20.631,23.784,20.521,23.316,20.521,23.316z"/>
			<path fill="#A7A7A7" d="M18.51,23.316L18.488,8.189c0,0,0.044,6.839-0.777,14.706l0.273,0.298c0,0,0.078,0.816,0.27,0.737
				C18.619,23.784,18.51,23.316,18.51,23.316z"/>
			<path fill="#A7A7A7" d="M16.731,23.316L16.708,8.189c0,0,0.045,6.839-0.776,14.706l0.273,0.298c0,0,0.078,0.816,0.27,0.737
				C16.841,23.784,16.731,23.316,16.731,23.316z"/>
			<path fill="#A7A7A7" d="M14.719,23.316L14.697,8.189c0,0,0.044,6.839-0.777,14.706l0.272,0.298c0,0,0.08,0.816,0.271,0.737
				C14.831,23.784,14.719,23.316,14.719,23.316z"/>
			<path fill="#A7A7A7" d="M13.012,23.316L12.989,8.189c0,0,0.043,6.839-0.777,14.706l0.272,0.298c0,0,0.079,0.816,0.271,0.737
				C13.12,23.784,13.012,23.316,13.012,23.316z"/>
			<path fill="#A7A7A7" d="M11,20.537L10.977,8.189c0,0,0.043,5.583-0.778,12.005l0.274,0.243c0,0,0.077,0.666,0.27,0.602
				C11.109,20.919,11,20.537,11,20.537z"/>
			<path fill="#A7A7A7" d="M9.206,20.865L9.187,8.189c0,0,0.037,5.73-0.637,12.323l0.224,0.25c0,0,0.064,0.684,0.221,0.618
				C9.295,21.256,9.206,20.865,9.206,20.865z"/>
			<path fill="#2D2D2D" d="M19.158,7.365l0.022,15.127c0,0-0.044-7.785,0.778-15.654l-0.274-0.296c0,0-0.079,0.131-0.27,0.207
				C19.047,6.901,19.158,7.365,19.158,7.365z"/>
			<path fill="#2D2D2D" d="M17.319,7.365l0.022,15.127c0,0-0.044-7.785,0.777-15.654l-0.273-0.296c0,0-0.077,0.131-0.269,0.207
				C17.21,6.901,17.319,7.365,17.319,7.365z"/>
			<path fill="#2D2D2D" d="M15.351,7.365l0.021,15.127c0,0-0.043-7.785,0.778-15.654l-0.273-0.296c0,0-0.079,0.131-0.271,0.207
				C15.242,6.901,15.351,7.365,15.351,7.365z"/>
			<path fill="#2D2D2D" d="M13.511,7.365l0.022,15.127c0,0-0.043-7.785,0.778-15.654l-0.273-0.296c0,0-0.079,0.131-0.271,0.207
				C13.401,6.901,13.511,7.365,13.511,7.365z"/>
			<path fill="#2D2D2D" d="M11.628,7.365l0.023,15.127c0,0-0.045-7.785,0.777-15.654l-0.273-0.296c0,0-0.079,0.131-0.27,0.207
				C11.519,6.901,11.628,7.365,11.628,7.365z"/>
			<path fill="#2D2D2D" d="M9.748,7.365L9.77,22.492c0,0-0.044-7.785,0.777-15.654l-0.272-0.296c0,0-0.079,0.131-0.271,0.207
				C9.638,6.901,9.748,7.365,9.748,7.365z"/>
			<path fill="#2D2D2D" d="M8.011,7.365l0.022,15.127c0,0-0.042-7.785,0.777-15.654L8.537,6.542c0,0-0.078,0.131-0.271,0.207
				C7.901,6.901,8.011,7.365,8.011,7.365z"/>
			<path fill="#A7A7A7" d="M7.704,20.868L7.689,8.373c0,0,0.03,5.649-0.539,12.148l0.189,0.247c0,0,0.054,0.674,0.187,0.609
				C7.78,21.254,7.704,20.868,7.704,20.868z"/>
		</g>
		<g>
			<polygon opacity="0.5" fill="#2B2B2B" enable-background="new    " points="11.877,23.518 10.523,24.625 6.793,24.625
				7.851,20.699 8.147,20.457 10.671,20.457 			"/>
			<path fill="#AD4717" stroke="#000000" stroke-width="0.5" stroke-miterlimit="10" d="M12.211,23.092
				c0,0.321-0.261,0.582-0.582,0.582H9.667c-0.321,0-0.582-0.261-0.582-0.582V21.13c0-0.321,0.26-0.582,0.582-0.582h1.962
				c0.321,0,0.582,0.26,0.582,0.582V23.092z"/>
			<path d="M11.721,22.602c0,0.321-0.26,0.582-0.582,0.582h-0.983c-0.321,0-0.582-0.26-0.582-0.582v-0.983
				c0-0.321,0.261-0.582,0.582-0.582h0.983c0.321,0,0.582,0.261,0.582,0.582V22.602z"/>

				<line fill="none" stroke="#000000" stroke-width="0.5" stroke-miterlimit="10" x1="10.148" y1="23.673" x2="10.148" y2="23.184"/>

				<line fill="none" stroke="#000000" stroke-width="0.5" stroke-miterlimit="10" x1="11.512" y1="23.044" x2="11.512" y2="23.673"/>

				<line fill="none" stroke="#000000" stroke-width="0.5" stroke-miterlimit="10" x1="11.721" y1="21.619" x2="12.211" y2="21.619"/>

				<line fill="none" stroke="#000000" stroke-width="0.5" stroke-miterlimit="10" x1="10.648" y1="21.038" x2="10.648" y2="20.548"/>
			<line fill="none" stroke="#000000" stroke-width="0.5" stroke-miterlimit="10" x1="9.575" y1="21.619" x2="9.086" y2="21.619"/>
			<line fill="none" stroke="#000000" stroke-width="0.5" stroke-miterlimit="10" x1="9.575" y1="22.111" x2="9.086" y2="22.111"/>
		</g>
	</g>
	<g>
		<polygon opacity="0.5" fill="#2B2B2B" enable-background="new    " points="29.105,40.082 24.147,44.139 10.484,44.139
			14.358,29.758 15.443,28.87 24.687,28.87 		"/>
		<g>
			<rect x="15.443" y="28.875" width="13.5" height="13.5"/>
			<path fill="#6C6C6C" stroke="#000000" stroke-width="0.5" stroke-miterlimit="10" d="M28.943,40.001
				c0,0.184-0.151,0.332-0.337,0.332s-0.337-0.148-0.337-0.332s-0.151-0.334-0.337-0.334c-0.187,0-0.337,0.15-0.337,0.334
				s-0.151,0.332-0.337,0.332c-0.187,0-0.338-0.148-0.338-0.332s-0.15-0.334-0.337-0.334c-0.186,0-0.337,0.15-0.337,0.334
				s-0.151,0.332-0.337,0.332c-0.186,0-0.337-0.148-0.337-0.332s-0.151-0.334-0.337-0.334s-0.337,0.15-0.337,0.334
				s-0.151,0.332-0.337,0.332c-0.187,0-0.337-0.148-0.337-0.332s-0.151-0.334-0.337-0.334c-0.187,0-0.338,0.15-0.338,0.334
				s-0.15,0.332-0.337,0.332c-0.186,0-0.337-0.148-0.337-0.332s-0.151-0.334-0.337-0.334s-0.337,0.15-0.337,0.334l0,0
				c0,0.184-0.151,0.332-0.337,0.332s-0.337-0.148-0.337-0.332c0-0.185-0.151-0.334-0.337-0.334c-0.187,0-0.337,0.149-0.337,0.334
				c0,0.184-0.151,0.332-0.337,0.332c-0.187,0-0.338-0.148-0.338-0.332c0-0.185-0.15-0.334-0.337-0.334
				c-0.186,0-0.337,0.149-0.337,0.334c0,0.184-0.151,0.332-0.337,0.332s-0.337-0.148-0.337-0.332c0-0.185-0.151-0.334-0.337-0.334
				c-0.186,0-0.337,0.149-0.337,0.334c0,0.184-0.151,0.332-0.337,0.332c-0.187,0-0.337-0.148-0.337-0.332
				c0-0.185-0.151-0.334-0.337-0.334c-0.187,0-0.338,0.149-0.338,0.334c0,0.184-0.15,0.332-0.337,0.332
				c-0.186,0-0.337-0.148-0.337-0.332c0-0.185-0.151-0.334-0.337-0.334s-0.337,0.149-0.337,0.334V40V28.875h13.5v11.126H28.943z"/>
			<path fill="#6C6C6C" stroke="#000000" stroke-width="0.5" stroke-miterlimit="10" d="M51.92,42.377
				c0,0.104-0.151,0.186-0.338,0.186c-0.186,0-0.338-0.082-0.338-0.186s-0.151-0.188-0.337-0.188c-0.187,0-0.338,0.084-0.338,0.188
				s-0.151,0.186-0.338,0.186s-0.338-0.082-0.338-0.186s-0.151-0.188-0.338-0.188c-0.186,0-0.337,0.084-0.337,0.188
				s-0.152,0.186-0.338,0.186c-0.187,0-0.338-0.082-0.338-0.186s-0.151-0.188-0.338-0.188c-0.186,0-0.338,0.084-0.338,0.188
				s-0.151,0.186-0.337,0.186c-0.187,0-0.338-0.082-0.338-0.186s-0.151-0.188-0.338-0.188s-0.338,0.084-0.338,0.188
				s-0.151,0.186-0.338,0.186c-0.186,0-0.337-0.082-0.337-0.186s-0.152-0.188-0.338-0.188c-0.187,0-0.338,0.084-0.338,0.188l0,0
				c0,0.104-0.151,0.186-0.338,0.186c-0.186,0-0.338-0.082-0.338-0.186s-0.151-0.188-0.337-0.188c-0.187,0-0.338,0.084-0.338,0.188
				s-0.151,0.186-0.338,0.186s-0.338-0.082-0.338-0.186s-0.151-0.188-0.338-0.188c-0.186,0-0.337,0.084-0.337,0.188
				s-0.152,0.186-0.338,0.186c-0.187,0-0.338-0.082-0.338-0.186s-0.151-0.188-0.338-0.188c-0.186,0-0.338,0.084-0.338,0.188
				s-0.151,0.186-0.337,0.186c-0.187,0-0.338-0.082-0.338-0.186s-0.151-0.188-0.338-0.188s-0.338,0.084-0.338,0.188
				s-0.151,0.186-0.338,0.186c-0.186,0-0.337-0.082-0.337-0.186s-0.152-0.188-0.338-0.188c-0.187,0-0.338,0.084-0.338,0.188
				l0.014-0.002v-13.5h13.5v13.5v0.002H51.92z"/>
			<path opacity="0.7" fill="#2D2D2D" d="M16.592,39.703l-0.016-9.609c0,0,0.031,4.344-0.555,9.343l0.195,0.188
				c0,0,0.056,0.518,0.193,0.469C16.67,40,16.592,39.703,16.592,39.703z"/>
			<path opacity="0.7" fill="#A7A7A7" d="M15.941,29.571l0.016,9.609c0,0-0.031-4.344,0.555-9.343l-0.195-0.188
				c0,0-0.056-0.518-0.193-0.469C15.862,29.274,15.941,29.571,15.941,29.571z"/>
			<path opacity="0.7" fill="#A7A7A7" d="M17.025,29.571l0.016,9.609c0,0-0.031-4.344,0.555-9.343l-0.195-0.188
				c0,0-0.056-0.518-0.193-0.469C16.947,29.274,17.025,29.571,17.025,29.571z"/>
			<path opacity="0.7" fill="#A7A7A7" d="M18.461,29.571l0.016,9.609c0,0-0.031-4.344,0.555-9.343l-0.195-0.188
				c0,0-0.056-0.518-0.193-0.469C18.382,29.274,18.461,29.571,18.461,29.571z"/>
			<path opacity="0.7" fill="#A7A7A7" d="M19.731,29.571l0.016,9.609c0,0-0.031-4.344,0.555-9.343l-0.195-0.188
				c0,0-0.056-0.518-0.193-0.469C19.652,29.274,19.731,29.571,19.731,29.571z"/>
			<path opacity="0.7" fill="#A7A7A7" d="M21.166,29.571l0.016,9.609c0,0-0.031-4.344,0.555-9.343l-0.195-0.188
				c0,0-0.056-0.518-0.193-0.469C21.088,29.274,21.166,29.571,21.166,29.571z"/>
			<path opacity="0.7" fill="#A7A7A7" d="M22.387,29.571l0.016,9.609c0,0-0.031-4.344,0.555-9.343l-0.195-0.188
				c0,0-0.056-0.518-0.193-0.469C22.309,29.274,22.387,29.571,22.387,29.571z"/>
			<path opacity="0.7" fill="#A7A7A7" d="M23.822,29.571l0.016,9.609c0,0-0.031-4.344,0.555-9.343l-0.195-0.188
				c0,0-0.056-0.518-0.193-0.469C23.744,29.274,23.822,29.571,23.822,29.571z"/>
			<path opacity="0.7" fill="#A7A7A7" d="M25.106,29.571l0.016,9.609c0,0-0.031-4.344,0.555-9.343l-0.195-0.188
				c0,0-0.056-0.518-0.193-0.469C25.027,29.274,25.106,29.571,25.106,29.571z"/>
			<path opacity="0.7" fill="#A7A7A7" d="M26.541,29.571l0.016,9.609c0,0-0.031-4.344,0.555-9.343l-0.195-0.188
				c0,0-0.056-0.518-0.193-0.469C26.463,29.274,26.541,29.571,26.541,29.571z"/>
			<path opacity="0.7" fill="#A7A7A7" d="M27.906,29.571l0.016,9.609c0,0-0.031-4.344,0.555-9.343l-0.195-0.188
				c0,0-0.056-0.518-0.193-0.469C27.828,29.274,27.906,29.571,27.906,29.571z"/>
			<path opacity="0.7" fill="#2D2D2D" d="M17.998,39.703l-0.016-9.609c0,0,0.031,4.344-0.555,9.343l0.195,0.188
				c0,0,0.056,0.518,0.193,0.469C18.076,40,17.998,39.703,17.998,39.703z"/>
			<path opacity="0.7" fill="#2D2D2D" d="M19.311,39.703l-0.016-9.609c0,0,0.031,4.344-0.555,9.343l0.195,0.188
				c0,0,0.056,0.518,0.193,0.469C19.389,40,19.311,39.703,19.311,39.703z"/>
			<path opacity="0.7" fill="#2D2D2D" d="M20.717,39.703l-0.016-9.609c0,0,0.031,4.344-0.555,9.343l0.195,0.188
				c0,0,0.056,0.518,0.193,0.469C20.795,40,20.717,39.703,20.717,39.703z"/>
			<path opacity="0.7" fill="#2D2D2D" d="M22.029,39.703l-0.016-9.609c0,0,0.031,4.344-0.555,9.343l0.195,0.188
				c0,0,0.056,0.518,0.193,0.469C22.108,40,22.029,39.703,22.029,39.703z"/>
			<path opacity="0.7" fill="#2D2D2D" d="M23.373,39.703l-0.016-9.609c0,0,0.031,4.344-0.555,9.343l0.195,0.188
				c0,0,0.056,0.518,0.193,0.469C23.451,40,23.373,39.703,23.373,39.703z"/>
			<path opacity="0.7" fill="#2D2D2D" d="M24.717,39.703l-0.016-9.609c0,0,0.031,4.344-0.555,9.343l0.195,0.188
				c0,0,0.056,0.518,0.193,0.469C24.795,40,24.717,39.703,24.717,39.703z"/>
			<path opacity="0.7" fill="#2D2D2D" d="M26.092,39.703l-0.016-9.609c0,0,0.031,4.344-0.555,9.343l0.195,0.188
				c0,0,0.056,0.518,0.193,0.469C26.17,40,26.092,39.703,26.092,39.703z"/>
			<path opacity="0.7" fill="#2D2D2D" d="M27.436,39.703l-0.016-9.609c0,0,0.031,4.344-0.555,9.343l0.195,0.188
				c0,0,0.056,0.518,0.193,0.469C27.514,40,27.436,39.703,27.436,39.703z"/>
			<path opacity="0.7" fill="#2D2D2D" d="M39.552,41.874l-0.016-11.591c0,0,0.031,5.24-0.555,11.27l0.195,0.227
				c0,0,0.056,0.625,0.193,0.566C39.63,42.23,39.552,41.874,39.552,41.874z"/>
			<path opacity="0.7" fill="#A7A7A7" d="M38.901,29.652l0.016,11.591c0,0-0.031-5.24,0.555-11.269l-0.195-0.228
				c0,0-0.056-0.625-0.193-0.565C38.823,29.294,38.901,29.652,38.901,29.652z"/>
			<path opacity="0.7" fill="#A7A7A7" d="M39.985,29.652l0.016,11.591c0,0-0.031-5.24,0.555-11.269l-0.195-0.228
				c0,0-0.056-0.625-0.193-0.565C39.907,29.294,39.985,29.652,39.985,29.652z"/>
			<path opacity="0.7" fill="#A7A7A7" d="M41.421,29.652l0.016,11.591c0,0-0.031-5.24,0.555-11.269l-0.195-0.228
				c0,0-0.056-0.625-0.193-0.565C41.343,29.294,41.421,29.652,41.421,29.652z"/>
			<path opacity="0.7" fill="#A7A7A7" d="M42.691,29.652l0.016,11.591c0,0-0.031-5.24,0.555-11.269l-0.195-0.228
				c0,0-0.056-0.625-0.193-0.565C42.613,29.294,42.691,29.652,42.691,29.652z"/>
			<path opacity="0.7" fill="#A7A7A7" d="M44.127,29.652l0.016,11.591c0,0-0.031-5.24,0.555-11.269l-0.195-0.228
				c0,0-0.056-0.625-0.193-0.565C44.048,29.294,44.127,29.652,44.127,29.652z"/>
			<path opacity="0.7" fill="#A7A7A7" d="M45.347,29.652l0.016,11.591c0,0-0.031-5.24,0.555-11.269l-0.195-0.228
				c0,0-0.056-0.625-0.193-0.565C45.269,29.294,45.347,29.652,45.347,29.652z"/>
			<path opacity="0.7" fill="#A7A7A7" d="M46.783,29.652l0.016,11.591c0,0-0.031-5.24,0.555-11.269l-0.195-0.228
				c0,0-0.056-0.625-0.193-0.565C46.705,29.294,46.783,29.652,46.783,29.652z"/>
			<path opacity="0.7" fill="#A7A7A7" d="M48.066,29.652l0.016,11.591c0,0-0.031-5.24,0.555-11.269l-0.195-0.228
				c0,0-0.056-0.625-0.193-0.565C47.988,29.294,48.066,29.652,48.066,29.652z"/>
			<path opacity="0.7" fill="#A7A7A7" d="M49.502,29.652l0.016,11.591c0,0-0.031-5.24,0.555-11.269l-0.195-0.228
				c0,0-0.056-0.625-0.193-0.565C49.423,29.294,49.502,29.652,49.502,29.652z"/>
			<path opacity="0.7" fill="#A7A7A7" d="M50.866,29.652l0.016,11.591c0,0-0.031-5.24,0.555-11.269l-0.195-0.228
				c0,0-0.056-0.625-0.193-0.565C50.788,29.294,50.866,29.652,50.866,29.652z"/>
			<path opacity="0.7" fill="#2D2D2D" d="M40.959,41.874l-0.016-11.591c0,0,0.031,5.24-0.555,11.27l0.195,0.227
				c0,0,0.056,0.625,0.193,0.566C41.037,42.23,40.959,41.874,40.959,41.874z"/>
			<path opacity="0.7" fill="#2D2D2D" d="M42.271,41.874l-0.016-11.591c0,0,0.031,5.24-0.555,11.27l0.195,0.227
				c0,0,0.056,0.625,0.193,0.566C42.349,42.23,42.271,41.874,42.271,41.874z"/>
			<path opacity="0.7" fill="#2D2D2D" d="M43.677,41.874l-0.016-11.591c0,0,0.031,5.24-0.555,11.27l0.195,0.227
				c0,0,0.056,0.625,0.193,0.566C43.755,42.23,43.677,41.874,43.677,41.874z"/>
			<path opacity="0.7" fill="#2D2D2D" d="M44.99,41.874l-0.016-11.591c0,0,0.031,5.24-0.555,11.27l0.195,0.227
				c0,0,0.056,0.625,0.193,0.566C45.068,42.23,44.99,41.874,44.99,41.874z"/>
			<path opacity="0.7" fill="#2D2D2D" d="M46.334,41.874l-0.016-11.591c0,0,0.031,5.24-0.555,11.27l0.195,0.227
				c0,0,0.056,0.625,0.193,0.566C46.412,42.23,46.334,41.874,46.334,41.874z"/>
			<path opacity="0.7" fill="#2D2D2D" d="M47.677,41.874l-0.016-11.591c0,0,0.031,5.24-0.555,11.27l0.195,0.227
				c0,0,0.056,0.625,0.193,0.566C47.755,42.23,47.677,41.874,47.677,41.874z"/>
			<path opacity="0.7" fill="#2D2D2D" d="M49.052,41.874l-0.016-11.591c0,0,0.031,5.24-0.555,11.27l0.195,0.227
				c0,0,0.056,0.625,0.193,0.566C49.13,42.23,49.052,41.874,49.052,41.874z"/>
			<path opacity="0.7" fill="#2D2D2D" d="M50.396,41.874L50.38,30.283c0,0,0.031,5.24-0.555,11.27l0.195,0.227
				c0,0,0.056,0.625,0.193,0.566C50.474,42.23,50.396,41.874,50.396,41.874z"/>
		</g>
	</g>
</g>
<g id="turn_x5F_water">
	<g>
		<g opacity="0.7">
			<path opacity="0.5" fill="#FFFFFF" d="M90.213,8.466c5.443,0,10.688,0.646,14.768,4.242l-1.139,1.082
				C100.004,10.41,95.33,8.466,90.213,8.466L90.213,8.466z"/>
			<path opacity="0.5" fill="#FFFFFF" d="M93.078,8.663c4.08,0,8.232,1.366,11.291,4.062l-0.66,0.75
				C100.832,10.94,96.914,8.663,93.078,8.663L93.078,8.663z"/>
		</g>
		<g opacity="0.7">
			<path opacity="0.5" fill="#FFFFFF" d="M96.15,41.73c-5.443,0-10.688-0.646-14.768-4.242l1.139-1.082
				C86.359,39.788,91.033,41.73,96.15,41.73L96.15,41.73z"/>
			<path opacity="0.5" fill="#FFFFFF" d="M93.285,41.534c-4.08,0-8.232-1.366-11.291-4.062l0.66-0.75
				C85.531,39.257,89.449,41.534,93.285,41.534L93.285,41.534z"/>
		</g>
		<path opacity="0.5" fill="#FFFFFF" d="M98.93,18.183c-1.623-1.417-3.705-2.198-5.863-2.198l0,0c2.4,0,4.715-0.132,6.521,1.445
			L98.93,18.183z"/>
		<path opacity="0.5" fill="#FFFFFF" d="M93.066,33.82c-2.461,0-4.822,0.092-6.646-1.557l0.67-0.742
			C88.73,33.003,90.854,33.82,93.066,33.82L93.066,33.82z"/>

			<rect x="70.79" y="24.215" transform="matrix(-0.6652 0.7466 -0.7466 -0.6652 173.6107 -27.8059)" fill="#6C6C6C" stroke="#000000" stroke-width="0.5" stroke-miterlimit="10" width="44.499" height="1.606"/>

			<rect x="78.096" y="40.514" transform="matrix(-0.6662 0.7457 -0.7457 -0.6662 161.6349 10.295)" fill="#6C6C6C" stroke="#000000" stroke-width="0.5" stroke-miterlimit="10" width="0.835" height="1.606"/>

			<rect x="107.148" y="7.912" transform="matrix(-0.6662 0.7457 -0.7457 -0.6662 185.7302 -65.6925)" fill="#6C6C6C" stroke="#000000" stroke-width="0.5" stroke-miterlimit="10" width="0.835" height="1.608"/>

			<rect x="105.441" y="9.831" transform="matrix(-0.6662 0.7457 -0.7457 -0.6662 184.3167 -61.2225)" fill="#6C6C6C" stroke="#000000" stroke-width="0.5" stroke-miterlimit="10" width="0.835" height="1.607"/>

			<rect x="103.731" y="11.742" transform="matrix(-0.6658 0.7461 -0.7461 -0.6658 182.8506 -56.8084)" fill="#6C6C6C" stroke="#000000" stroke-width="0.5" stroke-miterlimit="10" width="0.833" height="1.606"/>

			<rect x="102.015" y="13.667" transform="matrix(-0.6654 0.7465 -0.7465 -0.6654 181.3935 -52.3674)" fill="#6C6C6C" stroke="#000000" stroke-width="0.5" stroke-miterlimit="10" width="0.837" height="1.608"/>

			<rect x="100.31" y="15.586" transform="matrix(-0.6654 0.7465 -0.7465 -0.6654 179.9862 -47.8992)" fill="#6C6C6C" stroke="#000000" stroke-width="0.5" stroke-miterlimit="10" width="0.837" height="1.607"/>

			<rect x="98.608" y="17.497" transform="matrix(-0.6633 0.7483 -0.7483 -0.6633 178.4074 -43.6588)" fill="#6C6C6C" stroke="#000000" stroke-width="0.5" stroke-miterlimit="10" width="0.833" height="1.609"/>

			<rect x="96.894" y="19.417" transform="matrix(-0.6644 0.7474 -0.7474 -0.6644 177.0749 -39.0769)" fill="#6C6C6C" stroke="#000000" stroke-width="0.5" stroke-miterlimit="10" width="0.835" height="1.607"/>

			<rect x="95.189" y="21.334" transform="matrix(-0.6649 0.7469 -0.7469 -0.6649 175.7141 -34.5493)" fill="#6C6C6C" stroke="#000000" stroke-width="0.5" stroke-miterlimit="10" width="0.834" height="1.607"/>

			<rect x="93.475" y="23.251" transform="matrix(-0.6649 0.7469 -0.7469 -0.6649 174.2912 -30.076)" fill="#6C6C6C" stroke="#000000" stroke-width="0.5" stroke-miterlimit="10" width="0.834" height="1.609"/>

			<rect x="91.771" y="25.173" transform="matrix(-0.6662 0.7457 -0.7457 -0.6662 172.9804 -25.4643)" fill="#6C6C6C" stroke="#000000" stroke-width="0.5" stroke-miterlimit="10" width="0.835" height="1.607"/>

			<rect x="90.06" y="27.088" transform="matrix(-0.6665 0.7455 -0.7455 -0.6665 171.577 -20.9651)" fill="#6C6C6C" stroke="#000000" stroke-width="0.5" stroke-miterlimit="10" width="0.835" height="1.608"/>

			<rect x="88.35" y="29.008" transform="matrix(-0.6665 0.7455 -0.7455 -0.6665 170.1578 -16.4924)" fill="#6C6C6C" stroke="#000000" stroke-width="0.5" stroke-miterlimit="10" width="0.835" height="1.606"/>

			<rect x="86.641" y="30.922" transform="matrix(-0.6649 0.7469 -0.7469 -0.6649 168.6421 -12.2005)" fill="#6C6C6C" stroke="#000000" stroke-width="0.5" stroke-miterlimit="10" width="0.834" height="1.608"/>

			<rect x="84.936" y="32.848" transform="matrix(-0.6665 0.7455 -0.7455 -0.6665 167.3307 -7.548)" fill="#6C6C6C" stroke="#000000" stroke-width="0.5" stroke-miterlimit="10" width="0.835" height="1.606"/>

			<rect x="83.226" y="34.758" transform="matrix(-0.6658 0.7461 -0.7461 -0.6658 165.8661 -3.1683)" fill="#6C6C6C" stroke="#000000" stroke-width="0.5" stroke-miterlimit="10" width="0.833" height="1.607"/>

			<rect x="81.514" y="36.681" transform="matrix(-0.6632 0.7484 -0.7484 -0.6632 164.3265 1.025)" fill="#6C6C6C" stroke="#000000" stroke-width="0.5" stroke-miterlimit="10" width="0.836" height="1.61"/>

			<rect x="79.814" y="38.593" transform="matrix(-0.6657 0.7462 -0.7462 -0.6657 163.0406 5.7493)" fill="#6C6C6C" stroke="#000000" stroke-width="0.5" stroke-miterlimit="10" width="0.836" height="1.608"/>
	</g>
	<animateTransform attributeType="xml"
	attributeName="transform"
	type="rotate"
	from="0 93.5 25"
	to="360 93.5 25"
	dur="7s"
	repeatCount="indefinite"/>
</g>
</svg>
