<?xml version="1.0" encoding="utf-8"?>
<!-- Generator: Adobe Illustrator 16.0.0, SVG Export Plug-In . SVG Version: 6.00 Build 0)  -->
<!DOCTYPE svg PUBLIC "-//W3C//DTD SVG 1.1//EN" "http://www.w3.org/Graphics/SVG/1.1/DTD/svg11.dtd">
<svg version="1.1" id="Calque_1" xmlns="http://www.w3.org/2000/svg" xmlns:xlink="http://www.w3.org/1999/xlink" x="0px" y="0px"
	 width="120px" height="80px" viewBox="0 0 120 80" enable-background="new 0 0 120 80" xml:space="preserve">
<rect fill="#5E4F39" width="120" height="80"/>
<g>
	<g>
		
			<rect x="92.027" y="43.583" fill="#6C6C6C" stroke="#000000" stroke-width="0.5" stroke-miterlimit="10" width="1.5" height="14.5"/>
		<g>
			
				<rect x="91.485" y="44.666" fill="#6C6C6C" stroke="#000000" stroke-width="0.5" stroke-miterlimit="10" width="2.5" height="0.918"/>
			
				<rect x="91.485" y="56.083" fill="#6C6C6C" stroke="#000000" stroke-width="0.5" stroke-miterlimit="10" width="2.5" height="0.917"/>
			
				<rect x="91.527" y="50.375" fill="#6C6C6C" stroke="#000000" stroke-width="0.5" stroke-miterlimit="10" width="2.5" height="0.917"/>
		</g>
	</g>
	<g>
		<circle fill="#E2DAC5" stroke="#000000" stroke-width="0.5" stroke-miterlimit="10" cx="92.757" cy="65.375" r="8.188"/>
		
			<ellipse fill="#C4E6F5" stroke="#000000" stroke-width="0.5" stroke-miterlimit="10" cx="92.757" cy="65.375" rx="7.334" ry="7.294"/>
	</g>
	<g>
		<g>
			
				<rect x="55.632" y="19.214" fill="#6C6C6C" stroke="#000000" stroke-width="0.5" stroke-miterlimit="10" width="17.709" height="1.832"/>
			<g>
				
					<rect x="56.953" y="18.655" fill="#6C6C6C" stroke="#000000" stroke-width="0.5" stroke-miterlimit="10" width="1.121" height="3.054"/>
				
					<rect x="70.898" y="18.655" fill="#6C6C6C" stroke="#000000" stroke-width="0.5" stroke-miterlimit="10" width="1.118" height="3.054"/>
				
					<rect x="63.926" y="18.604" fill="#6C6C6C" stroke="#000000" stroke-width="0.5" stroke-miterlimit="10" width="1.121" height="3.053"/>
			</g>
		</g>
		<g>
			
				<rect x="55.632" y="31.251" fill="#6C6C6C" stroke="#000000" stroke-width="0.5" stroke-miterlimit="10" width="17.709" height="1.832"/>
			<g>
				
					<rect x="56.953" y="30.692" fill="#6C6C6C" stroke="#000000" stroke-width="0.5" stroke-miterlimit="10" width="1.121" height="3.054"/>
				
					<rect x="70.898" y="30.692" fill="#6C6C6C" stroke="#000000" stroke-width="0.5" stroke-miterlimit="10" width="1.118" height="3.054"/>
				
					<rect x="63.926" y="30.641" fill="#6C6C6C" stroke="#000000" stroke-width="0.5" stroke-miterlimit="10" width="1.121" height="3.053"/>
			</g>
		</g>
		<g>
			<circle fill="#E2DAC5" stroke="#000000" stroke-width="0.5" stroke-miterlimit="10" cx="92.757" cy="26.063" r="22.25"/>
			<circle fill="#C4E6F5" stroke="#000000" stroke-width="0.5" stroke-miterlimit="10" cx="92.757" cy="26.063" r="20.5"/>
			<circle fill="#E2DAC5" stroke="#000000" stroke-width="0.5" stroke-miterlimit="10" cx="92.757" cy="26.063" r="2.375"/>
			
				<rect x="70.505" y="25.26" transform="matrix(0.6652 -0.7466 0.7466 0.6652 11.5921 77.9794)" fill="#6C6C6C" stroke="#000000" stroke-width="0.5" stroke-miterlimit="10" width="44.502" height="1.606"/>
			
				<rect x="77.815" y="41.561" transform="matrix(0.6662 -0.7457 0.7457 0.6662 -5.4821 72.4794)" fill="#6C6C6C" stroke="#000000" stroke-width="0.5" stroke-miterlimit="10" width="0.835" height="1.606"/>
			
				<rect x="106.861" y="8.956" transform="matrix(0.6656 -0.7463 0.7463 0.6656 28.5898 83.3274)" fill="#6C6C6C" stroke="#000000" stroke-width="0.5" stroke-miterlimit="10" width="0.835" height="1.609"/>
			
				<rect x="105.154" y="10.876" transform="matrix(0.6656 -0.7463 0.7463 0.6656 26.5866 82.6947)" fill="#6C6C6C" stroke="#000000" stroke-width="0.5" stroke-miterlimit="10" width="0.835" height="1.607"/>
			
				<rect x="103.445" y="12.794" transform="matrix(0.6661 -0.7459 0.7459 0.6661 24.5372 82.0052)" fill="#6C6C6C" stroke="#000000" stroke-width="0.5" stroke-miterlimit="10" width="0.833" height="1.606"/>
			
				<rect x="101.734" y="14.709" transform="matrix(0.6644 -0.7473 0.7473 0.6644 22.684 81.5487)" fill="#6C6C6C" stroke="#000000" stroke-width="0.5" stroke-miterlimit="10" width="0.836" height="1.609"/>
			
				<rect x="100.028" y="16.63" transform="matrix(0.6644 -0.7473 0.7473 0.6644 20.6774 80.9176)" fill="#6C6C6C" stroke="#000000" stroke-width="0.5" stroke-miterlimit="10" width="0.836" height="1.607"/>
			
				<rect x="98.319" y="18.547" transform="matrix(0.6643 -0.7475 0.7475 0.6643 18.6815 80.2986)" fill="#6C6C6C" stroke="#000000" stroke-width="0.5" stroke-miterlimit="10" width="0.834" height="1.608"/>
			
				<rect x="96.609" y="20.464" transform="matrix(0.6637 -0.748 0.748 0.6637 16.7202 79.7268)" fill="#6C6C6C" stroke="#000000" stroke-width="0.5" stroke-miterlimit="10" width="0.834" height="1.608"/>
			
				<rect x="94.901" y="22.383" transform="matrix(0.6643 -0.7475 0.7475 0.6643 14.6668 79.0315)" fill="#6C6C6C" stroke="#000000" stroke-width="0.5" stroke-miterlimit="10" width="0.834" height="1.608"/>
			
				<rect x="93.192" y="24.3" transform="matrix(0.6649 -0.7469 0.7469 0.6649 12.6141 78.327)" fill="#6C6C6C" stroke="#000000" stroke-width="0.5" stroke-miterlimit="10" width="0.834" height="1.609"/>
			
				<rect x="91.484" y="26.218" transform="matrix(0.6656 -0.7463 0.7463 0.6656 10.5649 77.6234)" fill="#6C6C6C" stroke="#000000" stroke-width="0.5" stroke-miterlimit="10" width="0.835" height="1.608"/>
			
				<rect x="89.775" y="28.136" transform="matrix(0.6668 -0.7452 0.7452 0.6668 8.484 76.8543)" fill="#6C6C6C" stroke="#000000" stroke-width="0.5" stroke-miterlimit="10" width="0.835" height="1.607"/>
			
				<rect x="88.066" y="30.055" transform="matrix(0.6668 -0.7452 0.7452 0.6668 6.4845 76.2197)" fill="#6C6C6C" stroke="#000000" stroke-width="0.5" stroke-miterlimit="10" width="0.835" height="1.606"/>
			
				<rect x="86.357" y="31.971" transform="matrix(0.6649 -0.7469 0.7469 0.6649 4.5949 75.7925)" fill="#6C6C6C" stroke="#000000" stroke-width="0.5" stroke-miterlimit="10" width="0.834" height="1.608"/>
			
				<rect x="84.65" y="33.89" transform="matrix(0.6669 -0.7451 0.7451 0.6669 2.4846 74.9447)" fill="#6C6C6C" stroke="#000000" stroke-width="0.5" stroke-miterlimit="10" width="0.836" height="1.606"/>
			
				<rect x="82.941" y="35.807" transform="matrix(0.6655 -0.7464 0.7464 0.6655 0.5556 74.4615)" fill="#6C6C6C" stroke="#000000" stroke-width="0.5" stroke-miterlimit="10" width="0.833" height="1.607"/>
			
				<rect x="81.229" y="37.724" transform="matrix(0.6632 -0.7484 0.7484 0.6632 -1.3379 74.0845)" fill="#6C6C6C" stroke="#000000" stroke-width="0.5" stroke-miterlimit="10" width="0.836" height="1.609"/>
			
				<rect x="79.523" y="39.642" transform="matrix(0.6649 -0.7469 0.7469 0.6649 -3.4246 73.2586)" fill="#6C6C6C" stroke="#000000" stroke-width="0.5" stroke-miterlimit="10" width="0.834" height="1.609"/>
		</g>
	</g>
</g>
<g>
	
		<rect x="6.757" y="6.188" fill="#6C6C6C" stroke="#000000" stroke-width="0.5" stroke-miterlimit="10" width="49.875" height="19.875"/>
	
		<rect x="6.757" y="26.063" fill="#6C6C6C" stroke="#000000" stroke-width="0.5" stroke-miterlimit="10" width="49.875" height="19.875"/>
	<g>
		<path fill="#AD4717" stroke="#000000" stroke-width="0.5" stroke-miterlimit="10" d="M12.211,22.792
			c0,0.321-0.261,0.582-0.582,0.582H9.667c-0.321,0-0.582-0.261-0.582-0.582V20.83c0-0.321,0.26-0.582,0.582-0.582h1.962
			c0.321,0,0.582,0.26,0.582,0.582V22.792z"/>
		<path d="M11.721,22.302c0,0.321-0.26,0.582-0.582,0.582h-0.983c-0.321,0-0.582-0.26-0.582-0.582v-0.983
			c0-0.321,0.261-0.582,0.582-0.582h0.983c0.321,0,0.582,0.261,0.582,0.582V22.302z"/>
		<line fill="none" stroke="#000000" stroke-width="0.5" stroke-miterlimit="10" x1="10.148" y1="23.373" x2="10.148" y2="22.883"/>
		<line fill="none" stroke="#000000" stroke-width="0.5" stroke-miterlimit="10" x1="11.513" y1="22.744" x2="11.513" y2="23.373"/>
		<line fill="none" stroke="#000000" stroke-width="0.5" stroke-miterlimit="10" x1="11.721" y1="21.319" x2="12.211" y2="21.319"/>
		<line fill="none" stroke="#000000" stroke-width="0.5" stroke-miterlimit="10" x1="10.648" y1="20.737" x2="10.648" y2="20.248"/>
		<line fill="none" stroke="#000000" stroke-width="0.5" stroke-miterlimit="10" x1="9.575" y1="21.319" x2="9.086" y2="21.319"/>
		<line fill="none" stroke="#000000" stroke-width="0.5" stroke-miterlimit="10" x1="9.575" y1="21.811" x2="9.086" y2="21.811"/>
	</g>
	
		<rect x="6.438" y="24.563" fill="#969696" stroke="#000000" stroke-width="0.5" stroke-miterlimit="10" width="50.516" height="2.875"/>
</g>
<rect x="13.773" y="28.875" width="13.5" height="13.5"/>
<g>
</g>
<path fill="none" stroke="#000000" stroke-width="0.5" stroke-miterlimit="10" d="M-24.45,40.001c0,0.184-0.151,0.332-0.337,0.332
	s-0.337-0.148-0.337-0.332s-0.151-0.334-0.337-0.334c-0.187,0-0.337,0.15-0.337,0.334s-0.151,0.332-0.337,0.332
	c-0.187,0-0.338-0.148-0.338-0.332s-0.15-0.334-0.337-0.334c-0.186,0-0.337,0.15-0.337,0.334s-0.151,0.332-0.337,0.332
	s-0.337-0.148-0.337-0.332s-0.151-0.334-0.337-0.334s-0.337,0.15-0.337,0.334s-0.151,0.332-0.337,0.332
	c-0.187,0-0.337-0.148-0.337-0.332s-0.151-0.334-0.337-0.334c-0.187,0-0.338,0.15-0.338,0.334s-0.15,0.332-0.337,0.332
	c-0.186,0-0.337-0.148-0.337-0.332s-0.151-0.334-0.337-0.334s-0.337,0.15-0.337,0.334l0,0c0,0.184-0.151,0.332-0.337,0.332
	s-0.337-0.148-0.337-0.332c0-0.185-0.151-0.334-0.337-0.334c-0.187,0-0.337,0.149-0.337,0.334c0,0.184-0.151,0.332-0.337,0.332
	c-0.187,0-0.338-0.148-0.338-0.332c0-0.185-0.15-0.334-0.337-0.334c-0.186,0-0.337,0.149-0.337,0.334
	c0,0.184-0.151,0.332-0.337,0.332s-0.337-0.148-0.337-0.332c0-0.185-0.151-0.334-0.337-0.334s-0.337,0.149-0.337,0.334
	c0,0.184-0.151,0.332-0.337,0.332c-0.187,0-0.337-0.148-0.337-0.332c0-0.185-0.151-0.334-0.337-0.334
	c-0.187,0-0.338,0.149-0.338,0.334c0,0.184-0.15,0.332-0.337,0.332c-0.186,0-0.337-0.148-0.337-0.332
	c0-0.185-0.151-0.334-0.337-0.334s-0.337,0.149-0.337,0.334"/>
<path fill="#6C6C6C" stroke="#000000" stroke-width="0.5" stroke-miterlimit="10" d="M27.273,40.001
	c0,0.184-0.151,0.332-0.337,0.332s-0.337-0.148-0.337-0.332s-0.151-0.334-0.337-0.334c-0.187,0-0.337,0.15-0.337,0.334
	s-0.151,0.332-0.337,0.332c-0.187,0-0.338-0.148-0.338-0.332s-0.15-0.334-0.337-0.334c-0.186,0-0.337,0.15-0.337,0.334
	s-0.151,0.332-0.337,0.332s-0.337-0.148-0.337-0.332s-0.151-0.334-0.337-0.334s-0.337,0.15-0.337,0.334s-0.151,0.332-0.337,0.332
	c-0.187,0-0.337-0.148-0.337-0.332s-0.151-0.334-0.337-0.334c-0.187,0-0.338,0.15-0.338,0.334s-0.15,0.332-0.337,0.332
	c-0.186,0-0.337-0.148-0.337-0.332s-0.151-0.334-0.337-0.334s-0.337,0.15-0.337,0.334l0,0c0,0.184-0.151,0.332-0.337,0.332
	s-0.337-0.148-0.337-0.332c0-0.185-0.151-0.334-0.337-0.334c-0.187,0-0.337,0.149-0.337,0.334c0,0.184-0.151,0.332-0.337,0.332
	c-0.187,0-0.338-0.148-0.338-0.332c0-0.185-0.15-0.334-0.337-0.334c-0.186,0-0.337,0.149-0.337,0.334
	c0,0.184-0.151,0.332-0.337,0.332s-0.337-0.148-0.337-0.332c0-0.185-0.151-0.334-0.337-0.334s-0.337,0.149-0.337,0.334
	c0,0.184-0.151,0.332-0.337,0.332c-0.187,0-0.337-0.148-0.337-0.332c0-0.185-0.151-0.334-0.337-0.334
	c-0.187,0-0.338,0.149-0.338,0.334c0,0.184-0.15,0.332-0.337,0.332c-0.186,0-0.337-0.148-0.337-0.332
	c0-0.185-0.151-0.334-0.337-0.334s-0.337,0.149-0.337,0.334V40V28.875h13.5V40.001L27.273,40.001z"/>
<path fill="#6C6C6C" stroke="#000000" stroke-width="0.5" stroke-miterlimit="10" d="M50.25,42.377c0,0.103-0.151,0.186-0.338,0.186
	c-0.186,0-0.338-0.083-0.338-0.186c0-0.104-0.151-0.188-0.337-0.188c-0.187,0-0.338,0.085-0.338,0.188
	c0,0.103-0.151,0.186-0.338,0.186c-0.187,0-0.338-0.083-0.338-0.186c0-0.104-0.151-0.188-0.338-0.188
	c-0.186,0-0.337,0.085-0.337,0.188c0,0.103-0.152,0.186-0.338,0.186c-0.187,0-0.338-0.083-0.338-0.186
	c0-0.104-0.151-0.188-0.338-0.188c-0.186,0-0.338,0.085-0.338,0.188c0,0.103-0.151,0.186-0.337,0.186
	c-0.187,0-0.338-0.083-0.338-0.186c0-0.104-0.151-0.188-0.338-0.188c-0.187,0-0.338,0.085-0.338,0.188
	c0,0.103-0.151,0.186-0.338,0.186c-0.186,0-0.337-0.083-0.337-0.186c0-0.104-0.152-0.188-0.338-0.188
	c-0.187,0-0.338,0.085-0.338,0.188l0,0c0,0.103-0.151,0.186-0.338,0.186c-0.186,0-0.338-0.083-0.338-0.186
	c0-0.104-0.151-0.188-0.337-0.188c-0.187,0-0.338,0.084-0.338,0.188c0,0.103-0.151,0.186-0.338,0.186
	c-0.187,0-0.338-0.083-0.338-0.186c0-0.104-0.151-0.188-0.338-0.188c-0.186,0-0.337,0.084-0.337,0.188
	c0,0.103-0.152,0.186-0.338,0.186c-0.187,0-0.338-0.083-0.338-0.186c0-0.104-0.151-0.188-0.338-0.188
	c-0.186,0-0.338,0.084-0.338,0.188c0,0.103-0.151,0.186-0.337,0.186c-0.187,0-0.338-0.083-0.338-0.186
	c0-0.104-0.151-0.188-0.338-0.188c-0.187,0-0.338,0.084-0.338,0.188c0,0.103-0.151,0.186-0.338,0.186
	c-0.186,0-0.337-0.083-0.337-0.186c0-0.104-0.152-0.188-0.338-0.188c-0.187,0-0.338,0.084-0.338,0.188l0.014-0.002v-13.5h13.5v13.5
	V42.377z"/>
<path fill="#2D2D2D" d="M14.922,39.703l-0.016-9.609c0,0,0.031,4.344-0.555,9.343l0.195,0.188c0,0,0.056,0.518,0.193,0.469
	C15,40,14.922,39.703,14.922,39.703z"/>
<path fill="#A7A7A7" d="M14.271,29.571l0.016,9.609c0,0-0.031-4.344,0.555-9.343l-0.195-0.188c0,0-0.056-0.518-0.193-0.469
	C14.192,29.274,14.271,29.571,14.271,29.571z"/>
<path fill="#A7A7A7" d="M15.355,29.571l0.016,9.609c0,0-0.031-4.344,0.555-9.343l-0.195-0.188c0,0-0.056-0.518-0.193-0.469
	C15.277,29.274,15.355,29.571,15.355,29.571z"/>
<path fill="#A7A7A7" d="M16.791,29.571l0.016,9.609c0,0-0.031-4.344,0.555-9.343l-0.195-0.188c0,0-0.056-0.518-0.193-0.469
	C16.712,29.274,16.791,29.571,16.791,29.571z"/>
<path fill="#A7A7A7" d="M18.061,29.571l0.016,9.609c0,0-0.031-4.344,0.555-9.343l-0.195-0.188c0,0-0.056-0.518-0.193-0.469
	C17.982,29.274,18.061,29.571,18.061,29.571z"/>
<path fill="#A7A7A7" d="M19.496,29.571l0.016,9.609c0,0-0.031-4.344,0.555-9.343l-0.195-0.188c0,0-0.056-0.518-0.193-0.469
	C19.418,29.274,19.496,29.571,19.496,29.571z"/>
<path fill="#A7A7A7" d="M20.717,29.571l0.016,9.609c0,0-0.031-4.344,0.555-9.343l-0.195-0.188c0,0-0.056-0.518-0.193-0.469
	C20.639,29.274,20.717,29.571,20.717,29.571z"/>
<path fill="#A7A7A7" d="M22.152,29.571l0.016,9.609c0,0-0.031-4.344,0.555-9.343l-0.195-0.188c0,0-0.056-0.518-0.193-0.469
	C22.074,29.274,22.152,29.571,22.152,29.571z"/>
<path fill="#A7A7A7" d="M23.436,29.571l0.016,9.609c0,0-0.031-4.344,0.555-9.343l-0.195-0.188c0,0-0.056-0.518-0.193-0.469
	C23.357,29.274,23.436,29.571,23.436,29.571z"/>
<path fill="#A7A7A7" d="M24.871,29.571l0.016,9.609c0,0-0.031-4.344,0.555-9.343l-0.195-0.188c0,0-0.056-0.518-0.193-0.469
	C24.793,29.274,24.871,29.571,24.871,29.571z"/>
<path fill="#A7A7A7" d="M26.236,29.571l0.016,9.609c0,0-0.031-4.344,0.555-9.343l-0.195-0.188c0,0-0.056-0.518-0.193-0.469
	C26.158,29.274,26.236,29.571,26.236,29.571z"/>
<path fill="#2D2D2D" d="M16.328,39.703l-0.016-9.609c0,0,0.031,4.344-0.555,9.343l0.195,0.188c0,0,0.056,0.518,0.193,0.469
	C16.406,40,16.328,39.703,16.328,39.703z"/>
<path fill="#2D2D2D" d="M17.641,39.703l-0.016-9.609c0,0,0.031,4.344-0.555,9.343l0.195,0.188c0,0,0.056,0.518,0.193,0.469
	C17.719,40,17.641,39.703,17.641,39.703z"/>
<path fill="#2D2D2D" d="M19.047,39.703l-0.016-9.609c0,0,0.031,4.344-0.555,9.343l0.195,0.188c0,0,0.056,0.518,0.193,0.469
	C19.125,40,19.047,39.703,19.047,39.703z"/>
<path fill="#2D2D2D" d="M20.359,39.703l-0.016-9.609c0,0,0.031,4.344-0.555,9.343l0.195,0.188c0,0,0.056,0.518,0.193,0.469
	C20.438,40,20.359,39.703,20.359,39.703z"/>
<path fill="#2D2D2D" d="M21.703,39.703l-0.016-9.609c0,0,0.031,4.344-0.555,9.343l0.195,0.188c0,0,0.056,0.518,0.193,0.469
	C21.781,40,21.703,39.703,21.703,39.703z"/>
<path fill="#2D2D2D" d="M23.047,39.703l-0.016-9.609c0,0,0.031,4.344-0.555,9.343l0.195,0.188c0,0,0.056,0.518,0.193,0.469
	C23.125,40,23.047,39.703,23.047,39.703z"/>
<path fill="#2D2D2D" d="M24.422,39.703l-0.016-9.609c0,0,0.031,4.344-0.555,9.343l0.195,0.188c0,0,0.056,0.518,0.193,0.469
	C24.5,40,24.422,39.703,24.422,39.703z"/>
<path fill="#2D2D2D" d="M25.766,39.703l-0.016-9.609c0,0,0.031,4.344-0.555,9.343l0.195,0.188c0,0,0.056,0.518,0.193,0.469
	C25.844,40,25.766,39.703,25.766,39.703z"/>
<path fill="#2D2D2D" d="M37.882,41.874l-0.016-11.591c0,0,0.031,5.24-0.555,11.27l0.195,0.227c0,0,0.056,0.625,0.193,0.565
	C37.96,42.231,37.882,41.874,37.882,41.874z"/>
<path fill="#A7A7A7" d="M37.231,29.652l0.016,11.591c0,0-0.031-5.24,0.555-11.269l-0.195-0.228c0,0-0.056-0.625-0.193-0.565
	C37.153,29.294,37.231,29.652,37.231,29.652z"/>
<path fill="#A7A7A7" d="M38.315,29.652l0.016,11.591c0,0-0.031-5.24,0.555-11.269l-0.195-0.228c0,0-0.056-0.625-0.193-0.565
	C38.237,29.294,38.315,29.652,38.315,29.652z"/>
<path fill="#A7A7A7" d="M39.751,29.652l0.016,11.591c0,0-0.031-5.24,0.555-11.269l-0.195-0.228c0,0-0.056-0.625-0.193-0.565
	C39.673,29.294,39.751,29.652,39.751,29.652z"/>
<path fill="#A7A7A7" d="M41.021,29.652l0.016,11.591c0,0-0.031-5.24,0.555-11.269l-0.195-0.228c0,0-0.056-0.625-0.193-0.565
	C40.943,29.294,41.021,29.652,41.021,29.652z"/>
<path fill="#A7A7A7" d="M42.457,29.652l0.016,11.591c0,0-0.031-5.24,0.555-11.269l-0.195-0.228c0,0-0.056-0.625-0.193-0.565
	C42.378,29.294,42.457,29.652,42.457,29.652z"/>
<path fill="#A7A7A7" d="M43.677,29.652l0.016,11.591c0,0-0.031-5.24,0.555-11.269l-0.195-0.228c0,0-0.056-0.625-0.193-0.565
	C43.599,29.294,43.677,29.652,43.677,29.652z"/>
<path fill="#A7A7A7" d="M45.113,29.652l0.016,11.591c0,0-0.031-5.24,0.555-11.269l-0.195-0.228c0,0-0.056-0.625-0.193-0.565
	C45.035,29.294,45.113,29.652,45.113,29.652z"/>
<path fill="#A7A7A7" d="M46.396,29.652l0.016,11.591c0,0-0.031-5.24,0.555-11.269l-0.195-0.228c0,0-0.056-0.625-0.193-0.565
	C46.318,29.294,46.396,29.652,46.396,29.652z"/>
<path fill="#A7A7A7" d="M47.832,29.652l0.016,11.591c0,0-0.031-5.24,0.555-11.269l-0.195-0.228c0,0-0.056-0.625-0.193-0.565
	C47.753,29.294,47.832,29.652,47.832,29.652z"/>
<path fill="#A7A7A7" d="M49.196,29.652l0.016,11.591c0,0-0.031-5.24,0.555-11.269l-0.195-0.228c0,0-0.056-0.625-0.193-0.565
	C49.118,29.294,49.196,29.652,49.196,29.652z"/>
<path fill="#2D2D2D" d="M39.289,41.874l-0.016-11.591c0,0,0.031,5.24-0.555,11.27l0.195,0.227c0,0,0.056,0.625,0.193,0.565
	C39.367,42.231,39.289,41.874,39.289,41.874z"/>
<path fill="#2D2D2D" d="M40.601,41.874l-0.016-11.591c0,0,0.031,5.24-0.555,11.27l0.195,0.227c0,0,0.056,0.625,0.193,0.565
	C40.679,42.231,40.601,41.874,40.601,41.874z"/>
<path fill="#2D2D2D" d="M42.007,41.874l-0.016-11.591c0,0,0.031,5.24-0.555,11.27l0.195,0.227c0,0,0.056,0.625,0.193,0.565
	C42.085,42.231,42.007,41.874,42.007,41.874z"/>
<path fill="#2D2D2D" d="M43.32,41.874l-0.016-11.591c0,0,0.031,5.24-0.555,11.27l0.195,0.227c0,0,0.056,0.625,0.193,0.565
	C43.398,42.231,43.32,41.874,43.32,41.874z"/>
<path fill="#2D2D2D" d="M44.664,41.874l-0.016-11.591c0,0,0.031,5.24-0.555,11.27l0.195,0.227c0,0,0.056,0.625,0.193,0.565
	C44.742,42.231,44.664,41.874,44.664,41.874z"/>
<path fill="#2D2D2D" d="M46.007,41.874l-0.016-11.591c0,0,0.031,5.24-0.555,11.27l0.195,0.227c0,0,0.056,0.625,0.193,0.565
	C46.085,42.231,46.007,41.874,46.007,41.874z"/>
<path fill="#2D2D2D" d="M47.382,41.874l-0.016-11.591c0,0,0.031,5.24-0.555,11.27l0.195,0.227c0,0,0.056,0.625,0.193,0.565
	C47.46,42.231,47.382,41.874,47.382,41.874z"/>
<path fill="#2D2D2D" d="M48.726,41.874L48.71,30.283c0,0,0.031,5.24-0.555,11.27l0.195,0.227c0,0,0.056,0.625,0.193,0.565
	C48.804,42.231,48.726,41.874,48.726,41.874z"/>
</svg>
